<?xml version="1.0" encoding="UTF-8"?>
<!DOCTYPE svg PUBLIC "-//W3C//DTD SVG 1.1//EN" "http://www.w3.org/Graphics/SVG/1.1/DTD/svg11.dtd">
<!-- Creator: CorelDRAW 2019 (64 Bit) -->
<svg xmlns="http://www.w3.org/2000/svg" xml:space="preserve" width="310mm" height="260mm" version="1.1" style="shape-rendering:geometricPrecision; text-rendering:geometricPrecision; image-rendering:optimizeQuality; fill-rule:evenodd; clip-rule:evenodd"
viewBox="0 0 31000 26000"
 xmlns:xlink="http://www.w3.org/1999/xlink">
 <defs>
  <style type="text/css">
   <![CDATA[
    .fil0 {fill:#501914;fill-rule:nonzero}
   ]]>
  </style>
 </defs>
 <g id="Camada_x0020_1">
  <metadata id="CorelCorpID_0Corel-Layer"/>
  <g id="_1598148081504">
   <path class="fil0" d="M11057.08 13495.05c6.94,-7.59 18.85,-11.79 37.23,-10.89 18.27,0.84 44,5.72 79.36,10.79 35.49,4.66 81.36,8.51 140.74,-0.87 58.81,-9.54 133.38,-34.04 210.66,-88.74 38.22,-27.37 76.64,-62.5 108.53,-105.76 32.21,-42.89 56.79,-94.18 65.72,-148.36 10.05,-60.57 9.15,-130.3 -11.64,-203.27 -20.48,-72.88 -56.62,-151.28 -115.3,-225.15 -56.98,-74.48 -134.45,-144.72 -226.68,-199.49 -93.21,-51.99 -205.63,-93.27 -330.92,-108.94 -30.96,-6.13 -63.66,-5.08 -96.16,-7.8 -32.69,-1.9 -66.26,1.47 -100.08,1.41 -67.55,7 -137.5,15.61 -206.81,36.39 -70.27,17.28 -138.52,47.34 -206.52,80.52 -32.21,19.59 -67.15,36.23 -97.7,59.81 -15.42,11.42 -32.63,21.06 -47.19,33.87 -14.86,12.47 -29.83,24.99 -44.89,37.61 -116.46,104.52 -205.3,240.92 -252.45,403.15 -48.21,160.78 -54.12,342.25 -16.09,515.85 20.2,86.43 49.97,171.06 90.96,250.03 42.68,77.99 95,149.42 157.44,212.6 33.95,29.77 65.33,62.95 103.65,88.1l27.49 20.42c9.09,6.94 18.15,13.94 28.42,19.3l59.48 35.24c81.8,43.11 168.79,80.72 262.32,103.07 185.09,50.84 386.88,56.01 584.58,34.72 198.22,-22.84 393.08,-78.4 574.52,-156.09 183.46,-82 357.8,-182.95 522.78,-293.98 164.93,-111.39 321.54,-230.93 472.85,-349.71 302.16,-238.12 586.28,-471.33 867.6,-647.69 280.01,-176.84 550.09,-302.07 786.28,-368.8 14.69,-4.37 29.2,-8.68 43.49,-12.95 14.52,-3.51 28.84,-7 43.01,-10.41 28.26,-6.68 55.79,-13.13 82.51,-19.43 27.02,-4.75 53.25,-9.35 78.66,-13.81 12.69,-2.22 25.14,-4.4 37.41,-6.55 12.4,-1.39 24.58,-2.73 36.56,-4.08 47.85,-5.27 92.04,-10.83 133.12,-11.24 40.93,-1.58 78.08,-3.92 111.58,-1.71 33.44,1.26 62.99,1.74 88.52,3.32 25.43,2.79 46.92,5.17 64.24,7.06 34.56,3.83 52.6,5.81 52.6,5.81 0,0 -18.14,-0.42 -52.92,-1.25 -17.35,-0.42 -38.8,-0.96 -64.24,-1.57 -25.44,0.57 -54.79,2.6 -87.81,4.1 -33.08,0.55 -69.63,5.92 -109.62,10.8 -40.15,3.66 -83.16,12.75 -129.41,21.68 -11.56,2.25 -23.31,4.52 -35.26,6.87 -11.82,3.05 -23.83,6.17 -36.03,9.35 -24.39,6.33 -49.53,12.85 -75.45,19.6 -25.5,8.18 -51.78,16.63 -78.75,25.3 -13.43,4.4 -27.05,8.86 -40.86,13.39 -13.55,5.24 -27.34,10.54 -41.24,15.93 -223.76,82.74 -475.25,223.74 -733.83,414.71 -259.36,190.17 -520.74,437 -809.41,697.06 -144.72,129.79 -297.19,262.57 -462.89,389.92 -165.85,127.02 -346.65,247.17 -544.11,349.05 -201.67,100.37 -420,175.72 -649.39,214.2 -229.13,36.58 -470.11,43.23 -708.17,-10.06 -119.22,-23.5 -236.11,-66.55 -347.91,-120.44l-82.31 -44.45c-13.97,-7 -26.92,-15.84 -39.83,-24.69l-38.89 -26.38c-53.32,-33.28 -99.57,-76.02 -147.49,-116.49 -92.95,-86.72 -172.25,-187.63 -235.36,-295.74 -61.47,-109.14 -106.38,-225.31 -137.08,-343.83 -58.75,-237.64 -56.75,-485.98 8.06,-716.71 30.16,-115.92 81.49,-225.66 142.77,-327.19 16.31,-24.92 32.59,-49.75 48.81,-74.47 18.5,-23.07 36.97,-46.06 55.34,-69 17.89,-23.48 38.51,-44 58.94,-64.62 20.78,-20.17 39.82,-42.33 62.12,-60.25 21.97,-18.37 43.74,-36.62 65.42,-54.73 21.55,-18.24 45.42,-32.7 67.9,-48.89 44.67,-33.07 93.17,-57.58 139.58,-84.34 95.74,-47.08 191.84,-86.91 289.32,-110.58 96.62,-27.14 193.68,-38.9 287.84,-46.12 47.41,-0.07 94.01,-2.83 139.97,0.39 46,4.04 91.35,4.97 135.57,13.87 177.9,26.85 338.47,89.54 476.22,174.79 136.02,87.94 242.81,195.21 322.31,311.32 80.64,115.11 131.68,241.56 155.57,365.66 3.57,15.32 5.78,30.86 7.29,46.54 1.67,15.51 3.35,30.9 4.98,46.15 1.9,30.67 1.58,61.15 1.39,90.7 -2.86,29.75 -4.63,58.87 -9.32,87.08 -5.98,28.42 -10.37,54.92 -18.34,82.83 -32.76,113.57 -93.21,201.31 -157.15,266.03 -64.2,65.33 -132.91,109.9 -198.62,141.26 -132.17,62.05 -252.84,71.84 -344.88,58.55 -92.86,-13.72 -155.94,-49.04 -194.29,-80.56 -38.51,-32.24 -55.24,-59.89 -61.7,-79.52 -6.35,-19.79 -3.43,-31.25 3.28,-38.6z"/>
   <path class="fil0" d="M9641.67 14837.96c10.73,-17.53 34.78,-30.51 85.53,-28.68 25.53,0.51 56.43,7.04 98.7,11.69 20.78,2.96 43.65,6.98 68.77,12.21 25.79,3.56 54.4,6.97 85.27,12.11 62.24,8.92 136.88,16.19 225.98,19.68 89.55,0.36 193.38,0.97 314.56,-17.34 120.8,-16.89 258.39,-46.34 410.99,-98.03 152.65,-51.99 319.48,-124.1 495,-232.37 178.32,-107.43 359.69,-241.46 542.79,-391.04 183.21,-149.57 368.02,-314.85 558.21,-479.84 94.94,-82.47 191.56,-164.82 289.97,-244.64 98.25,-79.87 195.85,-156.32 296.03,-230.86 199.49,-148.52 404.34,-282.42 608.99,-386.51 204.11,-104.9 405.62,-182.44 591.1,-233.63 93.59,-22.93 181.09,-46.21 264.66,-58.26 41.62,-6.45 81.1,-15.26 119.79,-18.89 38.55,-3.94 75.45,-7.7 110.59,-11.3 17.5,-1.77 34.59,-3.5 51.19,-5.17 16.7,-0.61 32.99,-1.22 48.79,-1.8 31.48,-1.03 61.12,-2 88.81,-2.89 55.12,-3.09 102.52,-0.16 141,1.28 76.69,3.05 118.57,4.72 118.57,4.72 0,0 -41.62,4.5 -117.87,12.72 -38.02,4.11 -84.66,7.9 -138.4,18.63 -26.85,4.69 -55.62,9.67 -86.17,15 -15.25,2.7 -30.93,5.46 -47.05,8.32 -15.93,3.85 -32.31,7.83 -49.07,11.91 -33.47,8.09 -68.58,16.58 -105.29,25.44 -36.65,8.48 -73.78,22.19 -112.76,33.63 -78.31,21.97 -159.28,55.4 -244.97,88.23 -169.84,71.01 -350.05,167.07 -530.07,287.26 -180.64,119.51 -358.99,265.52 -535.61,425.95 -88,79.94 -177.58,164.61 -265.29,249.75 -87.78,85.02 -175.02,172.7 -262.73,261.44 -175.33,177.1 -352.88,357.67 -539.42,524.78 -186.32,166.95 -382.04,320.7 -584.87,443.03 -203.44,125.36 -404.24,208.32 -587.02,262.28 -183.46,54.09 -351.44,78.79 -499.54,85.18 -148.15,7.87 -276.91,-9.03 -384.48,-28.97 -107.75,-23.16 -194.95,-53.19 -264.01,-85.5 -34.37,-16.86 -64.88,-32.06 -91.38,-47.41 -25.88,-17.02 -48.23,-32.73 -67.54,-47.21 -39.15,-27.69 -63.18,-56.47 -79.85,-78.18 -32.86,-44.19 -32.25,-69.72 -21.9,-86.72z"/>
   <path class="fil0" d="M13475.34 14597.92c-6.26,12.17 -17.5,23.41 -42.33,26.85 -24.79,3.49 -64.04,-0.87 -119.9,-29.97 -55.4,-28.84 -128.05,-84.48 -196.59,-187.25 -65.36,-102.75 -128.06,-254.57 -123.91,-458.39 3.08,-102.59 26.31,-205.52 65.3,-305.28 39.53,-99.18 94.71,-192.87 159.88,-276.21 64.78,-83.77 139.36,-157.35 216.67,-221.01 77.69,-63.37 157.25,-116.46 234.27,-161.2 154.07,-89.58 294.93,-148.84 395.34,-190.59 100.59,-41.27 161.55,-64.3 161.55,-64.3 0,0 -53.06,38.12 -140.96,101.3 -87.49,63.47 -210.51,152.01 -336.8,263.5 -126.7,111 -252.6,247.98 -341.54,401.51 -44.93,76.25 -80.03,155.8 -104.25,234.04 -23.54,77.83 -36.74,156.48 -38.7,226.11 -2.86,142.38 32.69,252.26 66.03,331.81 35.78,79.14 70.85,131.78 96.77,171.23 25.95,39.59 42.72,66.77 50.08,88.22 7.35,21.69 5.17,37.84 -0.91,49.63z"/>
   <path class="fil0" d="M13840.27 15114.31c12.62,5.33 23.61,17.86 24.02,51.94 0,8.47 -0.28,18.52 -2.18,29.8 -2.41,10.92 -5.88,23.38 -10.57,37.58 -2.54,7.19 -5.2,14.71 -8,22.61 -3.33,7.7 -7.57,15.44 -11.94,23.86 -9.13,16.47 -18.66,36 -33.28,54.22 -13.97,18.91 -29.73,39.99 -50.36,59.64 -19.5,21.26 -43.55,40.89 -70.59,61.86 -54.89,39.96 -125.27,79.14 -214.16,105.99 -88.65,26.59 -196.25,41.43 -319.52,25.88 -15.35,-2.14 -30.86,-5.49 -46.67,-8.41 -15.79,-2.92 -31.83,-6.16 -47.79,-11.37 -15.99,-4.85 -32.24,-9.76 -48.75,-14.74 -15.58,-6.3 -31.41,-12.69 -47.44,-19.17 -63.24,-27.79 -127.34,-64.05 -187.02,-111.8 -119.35,-95.34 -218.22,-225.54 -281.42,-374.02 -31.64,-74.23 -55.08,-152.82 -69.03,-233.69 -14.06,-81.29 -17.81,-163.26 -13.52,-243.69 8.42,-161.45 50.94,-316.23 111.19,-454.49 60.27,-138.6 137.7,-262.15 221.01,-367.98 166.73,-211.89 345.85,-358.82 473.04,-460.9 64.11,-50.75 116.36,-89.83 152.37,-116.55 36.09,-26.53 55.85,-41.02 55.85,-41.02 0,0 -17.02,17.57 -48.18,49.79 -31.09,32.24 -76.25,79.17 -131.27,138.81 -109.04,119.41 -261.44,289.48 -390.07,506.41 -64.23,107.81 -120.02,228.42 -159.24,356.09 -39.34,127.44 -61.02,262.24 -56.18,393.35 3.93,131.75 35.34,255.3 89.84,366.14 54.02,110.49 130.5,202.61 213.71,269.34 41.76,33.53 85.22,58.17 127.39,78.05 10.69,4.66 21.19,9.28 31.56,13.84 10.38,3.41 20.56,6.78 30.65,10.09 9.82,3.89 20.14,6.2 30.35,8.38 10.18,2.25 20.04,5.11 30.06,7.01 80.52,13.87 155.51,10.11 219.36,-1.64 64.12,-11.79 117.2,-31.45 161.37,-51.3 21.52,-10.82 41.98,-20.29 59.03,-31.44 18.44,-9.7 33.21,-20.82 47.66,-30.38 15.16,-9.03 26.21,-19.56 38.07,-27.88 5.81,-4.24 11.36,-8.29 16.67,-12.17 4.88,-4.12 9.53,-8.03 13.96,-11.79 9.06,-7.36 17.6,-13.65 25.57,-19.01 7.42,-5.69 13.72,-10.77 19.98,-14.74 24.69,-16.13 42.26,-17.64 54.47,-12.5z"/>
   <path class="fil0" d="M12784.71 12345.42c15.64,-22.49 49.08,-41.22 128.25,-21.88 81.22,15.74 206.51,72.33 440.79,141.16 117.81,32.08 252.44,63.43 391.45,81.16 138.81,18.24 281.36,22.58 409.51,14.65 128.31,-7.36 240.4,-30.29 321.24,-47.89 40.15,-9.57 71.68,-19.69 94.01,-25.44 22.22,-6.1 34.39,-9.44 34.39,-9.44 0,0 -10.37,7.06 -29.35,19.95 -19.27,12.49 -46.73,32.4 -83.02,54.08 -73.04,41.82 -179.09,98.92 -310.78,141.55 -131.14,43.1 -286.43,74.54 -444.67,80.9 -158.12,7.1 -318.26,-11.02 -455.14,-48.53 -33.93,-10.4 -65.88,-20.65 -95.95,-30.64 -30.25,-9.38 -57.23,-22.71 -83.18,-33.34 -52.1,-21.1 -94.91,-46.06 -131.97,-67.96 -37.55,-20.97 -66.55,-44.83 -91.34,-64.65 -24.58,-20.33 -44.4,-37.78 -58.53,-55.95 -57.81,-70.02 -50.81,-105.97 -35.71,-127.73z"/>
   <path class="fil0" d="M10631.2 12785.2c0,0 -4.44,5.34 -12.63,15.26 -7.93,10.31 -21.07,23.1 -34.78,42.65 -29.2,36.88 -65.78,93.4 -98.74,164.16 -67.19,140.55 -108.26,349.12 -62.04,547.65 46.53,198.45 175.84,367.23 298.38,463.42 60.88,48.82 118.73,83.25 161.22,103.39 21.01,11.47 38.45,17.09 50.1,22.84 11.77,5.23 18.1,8.06 18.1,8.06 0,0 -6.75,1.22 -19.32,3.5 -12.68,1.61 -31.98,6.43 -56.72,7.19 -49.8,4.22 -124.03,1.42 -213.76,-23.73 -44.91,-12.39 -92.5,-31.96 -141.97,-57.88 -48.24,-27.39 -99.02,-60.61 -145.72,-104.32 -94.36,-85.5 -177.81,-210.18 -214.06,-360.81 -34.28,-151.11 -14.72,-299.85 31.95,-418.31 22.48,-59.89 53.28,-112.18 84.41,-158.11 32.86,-45.16 66.8,-83.8 101.59,-114.79 69.27,-62.35 134.57,-97.73 181.11,-116.04 22.51,-10.28 41.94,-14.52 54.02,-18.69 12.28,-3.54 18.86,-5.44 18.86,-5.44z"/>
   <path class="fil0" d="M11345.43 12845.46c0,0 -4.71,1.29 -13.39,3.63 -8.67,2.64 -21.1,4.85 -36.71,10.11 -31.05,8.9 -73.87,24.99 -119.87,48.31 -93.2,46.16 -194.37,128.6 -266.57,227.11 -72.59,98.25 -121.28,219.33 -137.6,322.08 -8.61,50.84 -11.24,96.48 -10.5,128.76 -0.42,16.47 1.19,29 1.25,38.09 0.32,8.96 0.49,13.84 0.49,13.84 0,0 -3.83,-2.98 -10.8,-8.45 -6.71,-5.84 -18.02,-14 -29.73,-26.59 -24.9,-24.41 -57.18,-64.75 -84.38,-123.78 -27.21,-58.72 -46.93,-136.86 -43.33,-226.5 3.25,-89.06 32.41,-190.01 96.45,-278.01 64.98,-87.26 152.69,-145.14 236.74,-174.72 84.54,-30.1 165.02,-34.47 229.16,-25.96 64.46,8.42 112.58,27.24 143.29,43.75 15.48,7.48 26.66,15.83 34.2,20.52 7.32,5.04 11.3,7.81 11.3,7.81z"/>
   <path class="fil0" d="M12277.34 13622.59c0,0 10.6,-25.25 32.57,-70.09 5.62,-11.27 11.88,-23.69 18.66,-37.25 7.19,-13.37 15.73,-27.31 24.79,-42.55 18.44,-30.17 38.93,-65.59 65.95,-101.08 13.48,-18.12 27.52,-37 42.07,-56.53 14.96,-19.46 32.08,-38.16 49.4,-58.17 34.23,-40.63 75.03,-79.52 118.64,-120.37 89,-79.09 196.37,-156.62 319.32,-219.31 123.52,-61.64 249.69,-101.9 366.14,-126.51 58.78,-10.79 114.31,-20.46 167.3,-23.87 26.4,-2.02 51.59,-4.68 76.16,-5.17 24.34,-0.09 47.89,-0.15 70.47,-0.25 44.57,-0.65 85.27,3.95 120.47,7.04 17.63,1.79 33.95,3.2 48.98,5.32 14.9,2.61 28.62,5.01 41.05,7.17 49.11,8.96 75.7,15.45 75.7,15.45 0,0 -26.08,10.47 -72.21,26.72 -11.52,3.98 -24.3,8.38 -38.18,13.16 -13.87,5.34 -28.84,11.08 -44.8,17.22 -31.97,12.49 -68.28,24.41 -107.38,41.27 -19.65,7.77 -40.11,15.87 -61.31,24.22 -21.23,8.28 -42.81,18.56 -65.33,27.81 -45.25,17.83 -92.04,40.53 -141.57,61.7 -98.16,45.41 -203.67,95.84 -313.47,150.57 -109.27,55.83 -212.53,110.72 -307.41,162.65 -46.44,27.24 -92.5,51.42 -133.73,77.17 -20.85,12.63 -41.92,23.9 -61.19,36.04 -19.34,12.08 -38,23.71 -55.92,34.91 -36.78,21.43 -67.96,43.56 -97,61.83 -14.42,9.22 -27.94,17.83 -40.47,25.82 -12.11,8.32 -23.22,15.97 -33.3,22.87 -40.47,27.46 -64.4,42.21 -64.4,42.21z"/>
   <path class="fil0" d="M13741.15 14041.24c0,0 25.06,-27.58 70.41,-71.9 44.93,-43.69 109.07,-106.03 186.54,-181.34 38.28,-36.58 79.81,-76.29 124.03,-118.59 44.69,-40.66 90.23,-86.17 139.56,-130.04 97.07,-90.64 202.96,-184.68 318.23,-277.82 114.43,-94.17 227.84,-178.99 336.18,-255.82 52.89,-39.51 106.62,-74.97 155.45,-110.55 50.33,-34.82 97.57,-67.52 141.13,-97.61 89.35,-60.77 163.31,-111.06 215.12,-146.27 52.54,-35.49 84.63,-54.5 84.63,-54.5 0,0 -2.82,36.07 -13.39,100.21 -2.86,16.09 -6.04,33.88 -9.51,53.28 -4.01,19.27 -9.31,39.74 -14.97,61.9 -11.72,44.06 -25.01,95.13 -45.54,148.31 -9.89,26.92 -20.68,54.99 -32.47,84.12 -11.92,29.03 -26.3,57.85 -40.98,88.2 -28.84,61.16 -65.75,122.4 -106.57,186.09 -83.89,125.07 -192.52,252.22 -326.74,362.46 -134.95,109.29 -281.35,190.09 -420.74,247.14 -70.63,27.14 -138.05,50.97 -203.76,66.94 -32.66,8.25 -63.82,16.57 -94.65,22.39 -30.9,5.68 -60.57,10.62 -88.91,14.89 -56.23,9.41 -108.91,12.14 -154.45,14.78 -22.87,1.09 -43.94,2.15 -63.63,2.18 -19.72,-0.48 -37.8,-0.96 -54.12,-1.38 -64.94,-2.57 -100.85,-7.07 -100.85,-7.07z"/>
   <path class="fil0" d="M14434.39 14917.07c0,0 66.78,-456.75 355.87,-878.52 289.06,-421.74 690.95,-648.79 690.95,-648.79 0,0 -66.77,456.75 -355.83,878.5 -289.07,421.77 -690.99,648.81 -690.99,648.81z"/>
   <path class="fil0" d="M14618.2 14109.37c3.02,0 6.04,0 9.06,0 35.49,0 69.5,-31.22 67.86,-67.86 -1.66,-36.75 -29.83,-67.84 -67.86,-67.84 -3.02,0 -6.04,0 -9.06,0 -35.49,0 -69.47,31.18 -67.83,67.84 1.63,36.77 29.8,67.86 67.83,67.86l0 0z"/>
   <path class="fil0" d="M14428.22 14082.23c-87.29,0 -87.45,135.7 0,135.7 87.33,0 87.46,-135.7 0,-135.7l0 0z"/>
   <path class="fil0" d="M14183.96 14145.53c-87.29,0 -87.45,135.7 0,135.7 87.33,0 87.47,-135.7 0,-135.7l0 0z"/>
   <path class="fil0" d="M13948.76 14127.45c-87.33,0 -87.46,135.7 0,135.7 87.3,0 87.47,-135.7 0,-135.7l0 0z"/>
   <path class="fil0" d="M13514.53 15095.46c-3.02,0 -6.04,0 -9.06,0 -35.49,0 -69.5,31.18 -67.84,67.83 1.64,36.78 29.81,67.86 67.84,67.86 3.02,0 6.04,0 9.06,0 35.49,0 69.47,-31.22 67.84,-67.86 -1.64,-36.75 -29.81,-67.83 -67.84,-67.83l0 0z"/>
   <path class="fil0" d="M13306.43 15131.62c-87.29,0 -87.45,135.7 0,135.7 87.33,0 87.47,-135.7 0,-135.7l0 0z"/>
   <path class="fil0" d="M13089.32 15068.32c-87.3,0 -87.46,135.69 0,135.69 87.33,0 87.46,-135.69 0,-135.69l0 0z"/>
   <path class="fil0" d="M12926.48 14842.14c-87.3,0 -87.46,135.7 0,135.7 87.33,0 87.46,-135.7 0,-135.7l0 0z"/>
   <path class="fil0" d="M10009.55 14993.16c0,0 6.88,3.44 20.01,9.99 13.46,6.04 31.44,17.66 57.36,28.03 50.01,23.58 125.81,51.42 223.03,73.17 97.13,22.13 217.44,33.73 351.86,27.75 134.34,-6.2 282.57,-32.24 431.43,-80.23 302.2,-99.59 558.93,-265.52 739.46,-396.2 90.45,-65.53 162.68,-121.99 212.3,-161.79 49.75,-39.92 77.24,-62.02 77.24,-62.02 0,0 -23.57,26.37 -67.57,72.59 -44,46.22 -108.92,111.55 -193.29,186.93 -84.31,75.35 -188.79,159.88 -312.73,240.08 -123.69,80.29 -267.87,154.65 -426.92,207.45 -158.02,50.97 -316.71,72.75 -458.74,70.44 -142.18,-2.48 -267.35,-26.63 -365.34,-60.9 -98.22,-33.94 -171.06,-73.26 -217.6,-104.74 -24.22,-14.32 -40.43,-29.06 -52.58,-37.25 -11.75,-8.74 -17.92,-13.3 -17.92,-13.3z"/>
   <path class="fil0" d="M10040.06 15235.91c0,0 7.65,2.89 22.29,7.93 14.71,4.95 36.03,13.04 63.82,22.06 56.11,16.67 137.56,39.06 239.96,52.78 204.11,28.51 492.37,16.6 788.05,-80.66 296,-97.44 541.28,-246.3 712.88,-360.68 85.86,-57.65 153.53,-107.4 200.55,-141.61 46.64,-34.75 72.46,-53.95 72.46,-53.95 0,0 -22.48,23.09 -63.14,64.81 -41.56,40.85 -102.27,99.67 -182.31,167.3 -80.03,67.55 -179.76,143.8 -298.92,217.09 -118.71,73.71 -258.3,142.61 -413.04,194.09 -155.87,49.91 -311.15,75.28 -452.74,77.69 -141.6,3.4 -268.92,-13.33 -372.33,-39.09 -103.68,-25.63 -183.17,-59.61 -236.69,-84.47 -26.53,-13.13 -46.5,-24.57 -60.19,-31.8 -13.65,-7.32 -20.65,-11.49 -20.65,-11.49z"/>
   <path class="fil0" d="M10279.53 15500.69c0,0 6.75,1.06 19.57,3.08 12.81,2.38 31.75,4.69 56.14,7.13 24.38,2.41 54.09,6.62 88.58,7.9 17.22,1 35.62,2.06 55.11,3.18 19.46,0.23 40.02,0.45 61.61,0.71 86.11,-0.03 188.08,-5.01 298.99,-21.84 110.89,-16.67 230.85,-43.78 353.26,-83.73 242.71,-79.75 445.22,-187.41 585.93,-270.82 70.82,-41.46 126.22,-77.43 164.57,-102.17 19.34,-12.26 34.01,-22.1 43.94,-28.81 9.98,-6.62 15.25,-10.11 15.25,-10.11 0,0 -4.72,4.2 -13.64,12.2 -8.93,8.03 -22.16,19.78 -39.83,34.39 -35.05,29.43 -86.2,71.79 -153.53,120.1 -133.32,96.9 -333.32,221.1 -583.64,303.42 -126.43,41.27 -251.33,65.45 -366.02,76.79 -114.76,11.53 -219.44,8.84 -306.73,1.15 -21.8,-2.24 -42.55,-4.42 -62.21,-6.45 -19.59,-3.12 -38.06,-6.04 -55.31,-8.77 -34.49,-4.88 -63.95,-12.46 -87.97,-17.73 -24.03,-5.27 -42.56,-9.92 -55.05,-13.97 -12.46,-3.69 -19.02,-5.65 -19.02,-5.65z"/>
   <path class="fil0" d="M13981.97 13266.62c0,0 202.83,-253.73 528.15,-417.5 325.33,-163.77 649.94,-175.56 649.94,-175.56 0,0 -202.82,253.73 -528.15,417.51 -325.32,163.77 -649.94,175.55 -649.94,175.55z"/>
   <path class="fil0" d="M14493.33 11068.33c-4.95,18.92 23.63,38.51 54.05,77.32 3.72,4.81 7.65,9.88 11.73,15.18 3.46,5.82 7.06,11.92 10.78,18.25 4.18,5.74 7.23,12.91 10.45,20.14 3.07,7.32 7.42,13.87 9.6,22.35 12.3,31.13 20.07,69.73 19.69,111.54 -0.26,41.54 -8.77,87.21 -30.32,125.3 -5.76,9.18 -10.41,19.27 -17.86,26.97 -3.47,4.08 -6.42,8.62 -9.99,12.6 -4.04,3.46 -7.97,7.03 -11.78,10.69 -6.56,7.93 -18.35,13.5 -27.12,20.84 -10.57,5.47 -20.49,12.11 -32.02,16.45 -88.35,40.73 -225.78,20.33 -316.84,-56.3 -12.05,-8.77 -21.23,-20.07 -31.73,-30.22 -8.71,-11.5 -18.31,-21.88 -26.15,-35.59 -16.57,-25.76 -30.15,-54.15 -39.15,-84.92 -19.27,-60.96 -22.68,-129.83 -12.53,-197.27 10.32,-67.57 34.88,-133.54 70.31,-190.75 18.6,-29.04 39.64,-56.79 62.7,-82.7 23.57,-25.6 49.01,-49.5 75.83,-71.69 108.2,-87.87 240.88,-144.27 362.03,-175.49 121.31,-29.49 238.42,-30.42 334.48,-18.63 98.73,11.53 195.95,37.38 285.95,77.53 90.18,39.53 173.01,94.21 240.39,162.26 67.65,67.77 118.59,150.06 143.58,240.54 12.68,45.09 19.62,92.11 19.66,139.36 1.02,11.78 0.38,23.6 -0.84,35.39l-2.57 35.39c-3.5,23.45 -7.81,46.93 -12.98,70.14 -48.04,185.94 -183.91,350.26 -354.01,455.7 -85.46,53.67 -177.7,92.37 -277.3,116.58 -99.47,24.03 -202.83,34.83 -307.34,35.63 -263.01,1.15 -526.67,-59.49 -789.4,-129.12 -263.14,-69.06 -524.2,-150.79 -786.06,-233.88 -523.61,-166.47 -1051.25,-344.95 -1606.18,-456.76 -277.25,-55.91 -560.47,-93.07 -847.28,-104.86 -286.78,-10.02 -577.83,4.21 -865.19,60.25 -72.04,12.18 -143.09,30.99 -214.43,48.06 -35.61,8.89 -70.62,20.45 -105.95,30.67 -35.26,10.47 -70.63,20.68 -105.16,33.85l-104.12 37.51c-34.37,13.49 -68.16,28.59 -102.24,42.92l-51 21.83c-16.89,7.65 -33.49,16.54 -50.26,24.8l-100.18 50.75c-32.44,18.52 -64.37,37.92 -96.51,56.97l-48.05 28.78 -46.22 31.6 -91.89 63.82 -87.56 69.57 -43.58 34.98 -41.37 37.61 -82.28 75.64 -77.15 80.9 -38.38 40.59 -35.72 43.08c-138.26,163.13 -251.35,346.23 -328.37,527.03 -78.82,180.24 -115.08,359.43 -126.9,505.28 -2.12,35.36 -3.59,68.47 -4.49,99.3 -0.2,30.94 3.34,60.06 5.36,86.63 2.47,26.65 5.3,51 8.38,73.1 2.8,22.09 9.67,42.04 14.42,59.7 21.07,70.66 42.98,105.47 64.02,107.66 21.03,2.22 41.42,-28.07 59.67,-87.42 9.12,-29.68 16.35,-66.68 30.06,-110.58 12.46,-43.91 21.94,-95.08 41.4,-152.18 7.42,-24.79 14.81,-50.56 22.13,-77.21 9.6,-26.14 19.49,-53.22 29.74,-81.13 17.28,-56.37 46.64,-112.87 70.89,-173.21 57.75,-117.81 127.6,-242.01 215.03,-362.1 88.74,-119.09 191.81,-234.59 304.95,-339.53 113.1,-105.18 238.8,-195.79 364.29,-273.48l83.96 -49.85 86.75 -44.06 43.36 -22.04 45.19 -19.52c30.15,-12.91 60.03,-26.5 90.34,-39.03 61.89,-22.09 122.37,-47.72 185.71,-65.87 31.48,-9.54 62.44,-20.59 94.23,-29.07l95.59 -25.08c128.09,-31 257.94,-56.37 389.76,-71.62 131.39,-17.47 264.42,-25.48 397.68,-29.2 534.74,-13.65 1070.59,73.48 1602.08,197.4 532.29,123.72 1062.3,283.02 1608.05,410.11 271.79,62.31 550.73,126.19 842.59,132.2 145.36,2.41 293.69,-10.6 437.64,-49.68 145.01,-38.1 283.47,-108.21 400.83,-203.67 50.4,-39.15 104.89,-92.46 159.44,-159.46 53.86,-67.35 106.37,-151.19 141.15,-253.28 34.85,-101.5 50.05,-222.27 28.91,-346.2 -20.65,-124.11 -81.84,-248.92 -173.44,-349.71 -91.22,-101.52 -209.18,-180.82 -338.78,-236 -129.79,-55.15 -271.97,-87.1 -417.89,-92.4 -72.93,-2.58 -146.91,1.57 -220.36,13.96 -36.55,6.3 -73.61,14.46 -109.17,24.45 -35.3,9.7 -70.14,21.36 -104.64,34.2 -137.46,51.87 -269.31,130.31 -374.49,240.95 -52.01,55.25 -97.17,118.33 -130.98,188.21 -33.18,69.48 -54.06,143.22 -63.4,217.96 -18.76,148.55 14.74,306.98 105.7,426.79 46.73,61.43 105.96,107.55 168.46,139.55 62.66,31.99 129.14,50.36 195.34,55.88 66.13,5.46 132.45,-2.21 193.18,-23.74 60.97,-21.61 114.51,-56.32 156.58,-101.39 42.69,-45.83 69.86,-99.53 82.45,-150.82 12.75,-51.4 16.25,-100.63 10.76,-145.37 -9.38,-89.68 -47.15,-161.46 -89.96,-208.45 -43.52,-47.6 -91.93,-67.83 -124.05,-73.55 -33.53,-3.72 -50.93,2.44 -53.69,13.39z"/>
   <path class="fil0" d="M13659.25 11540.12c-87.29,0 -87.45,135.7 0,135.7 87.33,0 87.49,-135.7 0,-135.7l0 0z"/>
   <path class="fil0" d="M13414.99 11440.58c-87.29,0 -87.45,135.7 0,135.7 87.33,0 87.49,-135.7 0,-135.7l0 0z"/>
   <path class="fil0" d="M13179.79 11359.16c-87.33,0 -87.46,135.7 0,135.7 87.33,0 87.47,-135.7 0,-135.7l0 0z"/>
   <path class="fil0" d="M12876.73 11336.56c0,3.01 0,6.03 0,9.05 0,35.49 31.21,69.51 67.87,67.83 36.73,-1.64 67.83,-29.81 67.83,-67.83 0,-3.02 0,-6.04 0,-9.05 0,-35.5 -31.22,-69.48 -67.83,-67.84 -36.78,1.64 -67.87,29.81 -67.87,67.84l0 0z"/>
   <path class="fil0" d="M12691.28 11241.58c-87.33,0 -87.46,135.7 0,135.7 87.33,0 87.46,-135.7 0,-135.7l0 0z"/>
   <path class="fil0" d="M8522.81 14278.4c-19.37,6.87 -42.49,10.12 -69.92,0.1 -27.24,-10.09 -60.13,-33.15 -93.66,-81.23 -34.05,-47.82 -69.77,-120.89 -95.75,-229.67 -25.82,-108.44 -41.33,-253.73 -18.63,-437.38 23.26,-183.15 93.34,-384.52 204.76,-558.7 110.29,-174.72 258.03,-317.87 402.08,-418.56 144.28,-101.72 285.09,-160.43 385.64,-193.32 50.75,-15.99 91.28,-26.98 119.71,-32.72 28.08,-6.08 43.43,-9.38 43.43,-9.38 0,0 -12.85,8.96 -36.39,25.34 -23.65,15.76 -56.79,40.88 -96.62,72.65 -79.13,64.42 -182.62,161.04 -276.47,285.26 -94.29,123.7 -179.37,272.92 -236.39,427.24 -57.74,153.95 -88.42,312.32 -106.7,453.67 -17.47,141.7 -19.3,253.58 -21.48,342.21 -2.12,88.72 -4.98,154.79 -12.4,204.72 -8.09,50.18 -19.92,84 -36.42,107.34 -16.28,23.36 -36.04,35.76 -54.79,42.43z"/>
   <path class="fil0" d="M6529.98 11667.69c8.51,-5.75 19.85,-8.77 34.5,-7.8 7.32,0.48 15.47,1.95 24.4,4.49 9.51,2.12 20.11,5.14 31.41,9.32 23.99,7.13 52.42,18.23 90.19,27.14 37.51,8.44 84.54,16.21 138.43,11.23 26.72,-2.34 55.05,-7.76 82.03,-18.59 27.23,-10.66 51.77,-25.63 75.61,-48.14 23.38,-22.52 46.79,-51.27 62.62,-87.79 16.57,-35.71 26.24,-78.01 24.19,-118.29 -0.74,-20.55 -4.05,-38.76 -12.04,-58.09 -1.9,-4.86 -3.61,-9.8 -5.11,-14.82l-7.75 -14c-3.78,-9.92 -11.69,-18.43 -17.66,-27.9 -26.59,-36.68 -72.84,-71.28 -132.58,-97 -30.58,-11.79 -63.82,-22.01 -99.51,-27.72 -35.55,-4.69 -73.03,-8.32 -110.06,-4.37 -9.48,-0.16 -18.31,2.41 -27.56,3.4 -9.22,1.13 -18.5,2.31 -27.14,4.98 -8.96,2.54 -17.47,3.57 -27.14,6.78 -9.73,3.18 -19.49,6.4 -29.35,9.6 -39.03,14.71 -78.11,34.47 -115.79,59.64 -75.32,50.18 -143.56,121.15 -190.04,205.21 -47.03,84.27 -71.63,177 -68.93,277.6 2.41,100.04 32.22,204.62 86.31,294.46 26.97,44.93 59.86,86.13 97.61,121.49l14.13 13.37 15.7 12.17c10.56,8 20.62,16.8 31.51,24.54 22.77,14.06 44.55,30 69.47,41.46 23.48,13.85 49.94,22.84 75.38,34.08 26.95,8.09 53.09,18.72 81.45,24.19 55.43,14.57 114.31,21.13 173.79,24.09 59.62,3.59 120.38,-1.29 180.89,-7.33 60.41,-8.16 120.8,-19.14 179.83,-35.39 59.29,-16.38 116.33,-35.14 173.57,-59.55 57.46,-23.32 113.47,-50.59 168.62,-79.14 110.06,-57.78 215.7,-123.04 317.77,-189.94 204.08,-133.78 395.98,-270.05 583.23,-373.15 186.41,-103.71 365.38,-173.06 519.13,-209.06 76.73,-18.79 147.54,-27.07 208.99,-32.63 61.83,-3.66 114.66,-3.14 157.44,0 21.3,1.99 40.18,3.76 56.57,5.27 16.15,2.63 29.79,4.85 40.85,6.64 21.93,3.66 33.36,5.59 33.36,5.59 0,0 -11.59,-0.35 -33.85,-1.06 -11.05,-0.32 -24.76,-0.7 -40.97,-1.16 -16.23,0.65 -34.96,1.36 -56.09,2.19 -42.1,2.41 -93.46,8.64 -152.3,19.69 -58.58,12.97 -124.94,29.33 -195.79,56.27 -142.06,52.48 -303.04,138.24 -468.99,257.14 -166.4,118.06 -337.72,270.27 -531.81,428.36 -97.13,78.98 -201.12,158.85 -315.31,233.59 -57.29,37.07 -116.78,73.3 -179.79,106.05 -62.31,33.63 -130.5,63.6 -199.46,89.26 -69.33,25.79 -141.6,45.87 -215.63,62.15 -74.55,14.19 -150.67,26.34 -229.17,28.27 -78.2,2.56 -158.21,-0.2 -238.5,-14.4 -40.22,-5.2 -80.14,-16.69 -120.23,-26.4 -39.46,-13.2 -79.55,-24.83 -117.93,-42.94 -155.32,-64.36 -296.68,-180.89 -392.39,-322.27 -96.52,-141.19 -153.75,-305.9 -165.66,-475.28 -5.94,-84.6 -0.19,-170.68 17.82,-254.02 17.96,-83.32 47.57,-162.4 85.88,-235.08 76.61,-145.66 188.13,-265.36 317.69,-352.08 64.81,-43.33 133.54,-77.88 204.05,-103.42 17.91,-5.71 35.7,-11.39 53.34,-17.02 17.76,-5.46 37.52,-9.21 56.02,-13.55 18.78,-4.7 37.42,-7.29 55.94,-9.54 18.5,-2.09 36.98,-5.43 55.09,-5.63 145.75,-9.02 279.94,19.82 398.36,73.11 117.32,55.08 221.36,137.5 289.51,244.61 16.38,27.17 32.79,53.48 44,82.55 6.04,14.19 12.11,28.26 17.38,42.42 4.11,14.58 8.19,29.04 12.2,43.39 16.03,57.23 20.82,117.46 17.06,171.58 -6.88,109.68 -42.95,203.34 -90.96,279.11 -47.54,76.37 -109.88,134.7 -175.27,176.64 -65.49,42.08 -136.66,65.59 -199.81,73.97 -63.53,8.93 -120.41,4.4 -169.45,-5.52 -98.41,-20.27 -166.3,-62.12 -212.62,-100.92 -46.41,-39.7 -70.79,-78.69 -84.7,-108.11 -6.39,-15.45 -10.44,-28.42 -12.65,-39.47 -1.64,-11.56 -1.64,-20.97 -0.55,-28.71 2.25,-15.45 8.96,-24.26 17.22,-29.81z"/>
   <path class="fil0" d="M19970.58 13495.05c-6.94,-7.59 -18.85,-11.79 -37.23,-10.89 -18.27,0.84 -44,5.72 -79.36,10.79 -35.49,4.66 -81.35,8.51 -140.74,-0.87 -58.81,-9.54 -133.39,-34.04 -210.67,-88.74 -38.22,-27.37 -76.63,-62.5 -108.49,-105.76 -32.24,-42.89 -56.81,-94.18 -65.75,-148.36 -10.05,-60.57 -9.15,-130.3 11.63,-203.27 20.49,-72.88 56.63,-151.28 115.31,-225.15 56.97,-74.48 134.44,-144.72 226.69,-199.49 93.21,-51.99 205.62,-93.27 330.91,-108.94 30.95,-6.13 63.66,-5.08 96.16,-7.8 32.69,-1.9 66.26,1.47 100.07,1.41 67.55,7 137.51,15.61 206.82,36.39 70.27,17.28 138.52,47.34 206.51,80.52 32.25,19.59 67.16,36.23 97.71,59.81 15.41,11.42 32.63,21.06 47.18,33.87 14.87,12.47 29.83,24.99 44.9,37.61 116.46,104.52 205.3,240.92 252.45,403.15 48.2,160.78 54.12,342.25 16.09,515.85 -20.17,86.43 -49.98,171.06 -90.96,250.03 -42.68,77.99 -95,149.42 -157.44,212.6 -33.95,29.77 -65.33,62.95 -103.64,88.1l-27.5 20.42c-9.08,6.94 -18.14,13.94 -28.42,19.3l-59.49 35.24c-81.8,43.11 -168.78,80.72 -262.31,103.07 -185.1,50.84 -386.89,56.01 -584.57,34.72 -198.23,-22.84 -393.09,-78.4 -574.53,-156.09 -183.46,-82 -357.79,-182.95 -522.79,-293.98 -164.93,-111.39 -321.53,-230.93 -472.84,-349.71 -302.13,-238.12 -586.29,-471.33 -867.6,-647.69 -280.01,-176.84 -550.09,-302.07 -786.29,-368.8 -14.67,-4.37 -29.16,-8.68 -43.48,-12.95 -14.52,-3.51 -28.84,-7 -43.01,-10.41 -28.27,-6.68 -55.79,-13.13 -82.51,-19.43 -27.01,-4.75 -53.25,-9.35 -78.66,-13.81 -12.69,-2.22 -25.15,-4.4 -37.41,-6.55 -12.4,-1.39 -24.58,-2.73 -36.56,-4.08 -47.85,-5.27 -92.05,-10.83 -133.13,-11.24 -40.91,-1.58 -78.08,-3.92 -111.57,-1.71 -33.44,1.26 -62.99,1.74 -88.52,3.32 -25.44,2.79 -46.93,5.17 -64.23,7.06 -34.57,3.83 -52.62,5.81 -52.62,5.81 0,0 18.15,-0.42 52.93,-1.25 17.35,-0.42 38.81,-0.96 64.24,-1.57 25.44,0.57 54.79,2.6 87.81,4.1 33.08,0.55 69.63,5.92 109.62,10.8 40.15,3.66 83.15,12.75 129.4,21.68 11.56,2.25 23.32,4.52 35.27,6.87 11.82,3.05 23.83,6.17 36.04,9.35 24.37,6.33 49.52,12.85 75.44,19.6 25.5,8.18 51.77,16.63 78.76,25.3 13.42,4.4 27.04,8.86 40.85,13.39 13.58,5.24 27.33,10.54 41.24,15.93 223.77,82.74 475.25,223.74 733.83,414.71 259.35,190.17 520.76,437 809.41,697.06 144.72,129.79 297.18,262.57 462.88,389.92 165.86,127.02 346.66,247.17 544.11,349.05 201.71,100.37 420.01,175.72 649.39,214.2 229.14,36.58 470.13,43.23 708.21,-10.06 119.22,-23.5 236.07,-66.55 347.87,-120.44l82.32 -44.45c13.98,-7 26.91,-15.84 39.82,-24.69l38.91 -26.38c53.31,-33.28 99.56,-76.02 147.48,-116.49 92.95,-86.72 172.25,-187.63 235.36,-295.74 61.47,-109.14 106.38,-225.31 137.08,-343.83 58.75,-237.64 56.75,-485.98 -8.06,-716.71 -30.16,-115.92 -81.48,-225.66 -142.77,-327.19 -16.31,-24.92 -32.6,-49.75 -48.81,-74.47 -18.5,-23.07 -36.98,-46.06 -55.35,-69 -17.89,-23.48 -38.51,-44 -58.93,-64.62 -20.79,-20.17 -39.83,-42.33 -62.12,-60.25 -21.93,-18.37 -43.75,-36.62 -65.42,-54.73 -21.55,-18.24 -45.42,-32.7 -67.9,-48.89 -44.68,-33.07 -93.18,-57.58 -139.58,-84.34 -95.75,-47.08 -191.85,-86.91 -289.33,-110.58 -96.6,-27.14 -193.66,-38.9 -287.84,-46.12 -47.41,-0.07 -94,-2.83 -139.97,0.39 -45.99,4.04 -91.34,4.97 -135.56,13.87 -177.91,26.85 -338.47,89.54 -476.22,174.79 -135.99,87.94 -242.82,195.21 -322.31,311.32 -80.64,115.11 -131.68,241.56 -155.58,365.66 -3.53,15.32 -5.78,30.86 -7.28,46.54 -1.68,15.51 -3.34,30.9 -4.98,46.15 -1.9,30.67 -1.58,61.15 -1.39,90.7 2.86,29.75 4.63,58.87 9.32,87.08 5.97,28.42 10.38,54.92 18.34,82.83 32.76,113.57 93.2,201.31 157.15,266.03 64.21,65.33 132.91,109.9 198.62,141.26 132.17,62.05 252.83,71.84 344.92,58.55 92.82,-13.72 155.89,-49.04 194.25,-80.56 38.5,-32.24 55.23,-59.89 61.69,-79.52 6.36,-19.79 3.44,-31.25 -3.27,-38.6z"/>
   <path class="fil0" d="M21385.99 14837.96c-10.73,-17.53 -34.78,-30.51 -85.53,-28.68 -25.54,0.51 -56.44,7.04 -98.7,11.69 -20.79,2.96 -43.65,6.98 -68.74,12.21 -25.82,3.56 -54.43,6.97 -85.3,12.11 -62.24,8.92 -136.89,16.19 -225.98,19.68 -89.55,0.36 -193.39,0.97 -314.57,-17.34 -120.79,-16.89 -258.39,-46.34 -410.98,-98.03 -152.66,-51.99 -319.48,-124.1 -495,-232.37 -178.32,-107.43 -359.69,-241.46 -542.76,-391.04 -183.24,-149.57 -368.04,-314.85 -558.25,-479.84 -94.94,-82.47 -191.55,-164.82 -289.96,-244.64 -98.25,-79.87 -195.86,-156.32 -296.03,-230.86 -199.49,-148.52 -404.34,-282.42 -608.99,-386.51 -204.11,-104.9 -405.62,-182.44 -591.1,-233.63 -93.59,-22.93 -181.09,-46.21 -264.65,-58.26 -41.63,-6.45 -81.11,-15.26 -119.81,-18.89 -38.54,-3.94 -75.45,-7.7 -110.58,-11.3 -17.51,-1.77 -34.59,-3.5 -51.19,-5.17 -16.71,-0.61 -32.99,-1.22 -48.79,-1.8 -31.48,-1.03 -61.12,-2 -88.81,-2.89 -55.11,-3.09 -102.52,-0.16 -141,1.28 -76.7,3.05 -118.58,4.72 -118.58,4.72 0,0 41.63,4.5 117.87,12.72 38.03,4.11 84.7,7.9 138.4,18.63 26.86,4.69 55.63,9.67 86.17,15 15.26,2.7 30.94,5.46 47.06,8.32 15.93,3.85 32.31,7.83 49.07,11.91 33.47,8.09 68.58,16.58 105.29,25.44 36.68,8.48 73.77,22.19 112.76,33.63 78.31,21.97 159.27,55.4 244.96,88.23 169.85,71.01 350.07,167.07 530.09,287.26 180.63,119.51 358.98,265.52 535.59,425.95 88.01,79.94 177.58,164.61 265.3,249.75 87.78,85.02 175.01,172.7 262.73,261.44 175.33,177.1 352.87,357.67 539.42,524.78 186.31,166.95 382.05,320.7 584.87,443.03 203.44,125.36 404.23,208.32 587.02,262.28 183.46,54.09 351.44,78.79 499.53,85.18 148.16,7.87 276.92,-9.03 384.48,-28.97 107.76,-23.16 194.96,-53.19 264.02,-85.5 34.36,-16.86 64.88,-32.06 91.37,-47.41 25.89,-17.02 48.24,-32.73 67.55,-47.21 39.15,-27.69 63.17,-56.47 79.84,-78.18 32.86,-44.19 32.25,-69.72 21.91,-86.72z"/>
   <path class="fil0" d="M17552.32 14597.92c6.25,12.17 17.5,23.41 42.32,26.85 24.8,3.49 64.05,-0.87 119.9,-29.97 55.41,-28.84 128.06,-84.48 196.6,-187.25 65.36,-102.75 128.05,-254.57 123.91,-458.39 -3.09,-102.59 -26.31,-205.52 -65.3,-305.28 -39.54,-99.18 -94.71,-192.87 -159.88,-276.21 -64.79,-83.77 -139.36,-157.35 -216.67,-221.01 -77.69,-63.37 -157.25,-116.46 -234.27,-161.2 -154.07,-89.58 -294.94,-148.84 -395.34,-190.59 -100.6,-41.27 -161.52,-64.3 -161.52,-64.3 0,0 53.03,38.12 140.93,101.3 87.49,63.47 210.5,152.01 336.79,263.5 126.7,111 252.61,247.98 341.55,401.51 44.93,76.25 80.03,155.8 104.25,234.04 23.54,77.83 36.75,156.48 38.73,226.11 2.83,142.38 -32.72,252.26 -66.06,331.81 -35.78,79.14 -70.85,131.78 -96.77,171.23 -25.96,39.59 -42.72,66.77 -50.07,88.22 -7.36,21.69 -5.18,37.84 0.9,49.63z"/>
   <path class="fil0" d="M17187.39 15114.31c-12.62,5.33 -23.61,17.86 -24.03,51.94 0,8.47 0.29,18.52 2.19,29.8 2.41,10.92 5.88,23.38 10.57,37.58 2.53,7.19 5.2,14.71 7.99,22.61 3.34,7.7 7.58,15.44 11.95,23.86 9.12,16.47 18.66,36 33.27,54.22 13.98,18.91 29.75,39.99 50.37,59.64 19.49,21.26 43.54,40.89 70.59,61.86 54.89,39.96 125.26,79.14 214.16,105.99 88.65,26.59 196.25,41.43 319.51,25.88 15.36,-2.14 30.87,-5.49 46.67,-8.41 15.83,-2.92 31.83,-6.16 47.8,-11.37 15.98,-4.85 32.24,-9.76 48.75,-14.74 15.58,-6.3 31.41,-12.69 47.43,-19.17 63.24,-27.79 127.36,-64.05 187.03,-111.8 119.35,-95.34 218.21,-225.54 281.42,-374.02 31.64,-74.23 55.08,-152.82 69.02,-233.69 14.1,-81.29 17.83,-163.26 13.52,-243.69 -8.41,-161.45 -50.94,-316.23 -111.19,-454.49 -60.25,-138.6 -137.69,-262.15 -221,-367.98 -166.73,-211.89 -345.86,-358.82 -473.04,-460.9 -64.11,-50.75 -116.33,-89.83 -152.36,-116.55 -36.11,-26.53 -55.86,-41.02 -55.86,-41.02 0,0 17.03,17.57 48.17,49.79 31.09,32.24 76.25,79.17 131.28,138.81 109.03,119.41 261.44,289.48 390.06,506.41 64.24,107.81 120.03,228.42 159.25,356.09 39.35,127.44 61.02,262.24 56.17,393.35 -3.91,131.75 -35.32,255.3 -89.83,366.14 -54.03,110.49 -130.49,202.61 -213.72,269.34 -41.75,33.53 -85.2,58.17 -127.38,78.05 -10.69,4.66 -21.19,9.28 -31.57,13.84 -10.37,3.41 -20.56,6.78 -30.64,10.09 -9.83,3.89 -20.13,6.2 -30.35,8.38 -10.18,2.25 -20.04,5.11 -30.06,7.01 -80.49,13.87 -155.52,10.11 -219.37,-1.64 -64.1,-11.79 -117.2,-31.45 -161.36,-51.3 -21.52,-10.82 -41.98,-20.29 -59.03,-31.44 -18.44,-9.7 -33.21,-20.82 -47.67,-30.38 -15.16,-9.03 -26.2,-19.56 -38.06,-27.88 -5.81,-4.24 -11.37,-8.29 -16.67,-12.17 -4.88,-4.12 -9.54,-8.03 -13.97,-11.79 -9.05,-7.36 -17.6,-13.65 -25.57,-19.01 -7.42,-5.69 -13.71,-10.77 -19.93,-14.74 -24.74,-16.13 -42.3,-17.64 -54.51,-12.5z"/>
   <path class="fil0" d="M18242.94 12345.42c-15.64,-22.49 -49.07,-41.22 -128.24,-21.88 -81.19,15.74 -206.52,72.33 -440.79,141.16 -117.81,32.08 -252.45,63.43 -391.45,81.16 -138.82,18.24 -281.36,22.58 -409.51,14.65 -128.31,-7.36 -240.4,-30.29 -321.24,-47.89 -40.15,-9.57 -71.69,-19.69 -94.02,-25.44 -22.22,-6.1 -34.39,-9.44 -34.39,-9.44 0,0 10.4,7.06 29.36,19.95 19.26,12.49 46.72,32.4 83.02,54.08 73.04,41.82 179.09,98.92 310.78,141.55 131.14,43.1 286.42,74.54 444.67,80.9 158.12,7.1 318.25,-11.02 455.15,-48.53 33.91,-10.4 65.87,-20.65 95.93,-30.64 30.25,-9.38 57.24,-22.71 83.18,-33.34 52.1,-21.1 94.92,-46.06 131.98,-67.96 37.55,-20.97 66.54,-44.83 91.34,-64.65 24.58,-20.33 44.39,-37.78 58.52,-55.95 57.81,-70.02 50.81,-105.97 35.71,-127.73z"/>
   <path class="fil0" d="M20396.46 12785.2c0,0 4.44,5.34 12.62,15.26 7.94,10.31 21.08,23.1 34.79,42.65 29.2,36.88 65.78,93.4 98.73,164.16 67.19,140.55 108.27,349.12 62.05,547.65 -46.54,198.45 -175.85,367.23 -298.37,463.42 -60.9,48.82 -118.74,83.25 -161.24,103.39 -21.01,11.47 -38.44,17.09 -50.1,22.84 -11.76,5.23 -18.08,8.06 -18.08,8.06 0,0 6.74,1.22 19.3,3.5 12.69,1.61 31.99,6.43 56.72,7.19 49.82,4.22 124.03,1.42 213.78,-23.73 44.9,-12.39 92.5,-31.96 141.96,-57.88 48.24,-27.39 99.02,-60.61 145.71,-104.32 94.37,-85.5 177.81,-210.18 214.07,-360.81 34.27,-151.11 14.72,-299.85 -31.95,-418.31 -22.49,-59.89 -53.29,-112.18 -84.41,-158.11 -32.82,-45.16 -66.81,-83.8 -101.58,-114.79 -69.29,-62.35 -134.58,-97.73 -181.09,-116.04 -22.55,-10.28 -41.98,-14.52 -54.05,-18.69 -12.27,-3.54 -18.86,-5.44 -18.86,-5.44z"/>
   <path class="fil0" d="M19682.22 12845.46c0,0 4.73,1.29 13.39,3.63 8.71,2.64 21.11,4.85 36.71,10.11 31.07,8.9 73.87,24.99 119.87,48.31 93.21,46.16 194.38,128.6 266.58,227.11 72.58,98.25 121.28,219.33 137.6,322.08 8.64,50.84 11.23,96.48 10.49,128.76 0.42,16.47 -1.18,29 -1.24,38.09 -0.33,8.96 -0.49,13.84 -0.49,13.84 0,0 3.83,-2.98 10.79,-8.45 6.71,-5.84 18.02,-14 29.75,-26.59 24.89,-24.41 57.16,-64.75 84.37,-123.78 27.2,-58.72 46.92,-136.86 43.32,-226.5 -3.24,-89.06 -32.4,-190.01 -96.45,-278.01 -64.97,-87.26 -152.69,-145.14 -236.74,-174.72 -84.53,-30.1 -165.02,-34.47 -229.16,-25.96 -64.46,8.42 -112.57,27.24 -143.28,43.75 -15.47,7.48 -26.65,15.83 -34.2,20.52 -7.32,5.04 -11.31,7.81 -11.31,7.81z"/>
   <path class="fil0" d="M18750.32 13622.59c0,0 -10.6,-25.25 -32.57,-70.09 -5.62,-11.27 -11.89,-23.69 -18.66,-37.25 -7.19,-13.37 -15.74,-27.31 -24.8,-42.55 -18.44,-30.17 -38.92,-65.59 -65.93,-101.08 -13.5,-18.12 -27.53,-37 -42.08,-56.53 -14.96,-19.46 -32.09,-38.16 -49.4,-58.17 -34.24,-40.63 -75.02,-79.52 -118.64,-120.37 -88.97,-79.09 -196.37,-156.62 -319.32,-219.31 -123.53,-61.64 -249.69,-101.9 -366.15,-126.51 -58.74,-10.79 -114.3,-20.46 -167.3,-23.87 -26.4,-2.02 -51.58,-4.68 -76.15,-5.17 -24.34,-0.09 -47.89,-0.15 -70.47,-0.25 -44.58,-0.65 -85.27,3.95 -120.47,7.04 -17.64,1.79 -33.95,3.2 -48.98,5.32 -14.91,2.61 -28.62,5.01 -41.05,7.17 -49.11,8.96 -75.7,15.45 -75.7,15.45 0,0 26.08,10.47 72.2,26.72 11.53,3.98 24.32,8.38 38.19,13.16 13.88,5.34 28.84,11.08 44.8,17.22 31.96,12.49 68.32,24.41 107.37,41.27 19.66,7.77 40.12,15.87 61.32,24.22 21.23,8.28 42.81,18.56 65.32,27.81 45.26,17.83 92.06,40.53 141.58,61.7 98.16,45.41 203.67,95.84 313.47,150.57 109.3,55.83 212.53,110.72 307.4,162.65 46.45,27.24 92.5,51.42 133.75,77.17 20.84,12.63 41.91,23.9 61.18,36.04 19.33,12.08 38,23.71 55.92,34.91 36.78,21.43 67.96,43.56 96.99,61.83 14.42,9.22 27.94,17.83 40.47,25.82 12.11,8.32 23.25,15.97 33.31,22.87 40.46,27.46 64.4,42.21 64.4,42.21z"/>
   <path class="fil0" d="M17286.51 14041.24c0,0 -25.06,-27.58 -70.41,-71.9 -44.94,-43.69 -109.08,-106.03 -186.54,-181.34 -38.29,-36.58 -79.81,-76.29 -124.04,-118.59 -44.68,-40.66 -90.22,-86.17 -139.55,-130.04 -97.06,-90.64 -202.96,-184.68 -318.23,-277.82 -114.44,-94.17 -227.84,-178.99 -336.17,-255.82 -52.91,-39.51 -106.64,-74.97 -155.46,-110.55 -50.33,-34.82 -97.57,-67.52 -141.13,-97.61 -89.35,-60.77 -163.32,-111.06 -215.12,-146.27 -52.54,-35.49 -84.64,-54.5 -84.64,-54.5 0,0 2.84,36.07 13.4,100.21 2.85,16.09 6.04,33.88 9.51,53.28 4.02,19.27 9.31,39.74 14.97,61.9 11.71,44.06 25.02,95.13 45.54,148.31 9.88,26.92 20.68,54.99 32.46,84.12 11.92,29.03 26.32,57.85 40.99,88.2 28.84,61.16 65.74,122.4 106.57,186.09 83.89,125.07 192.52,252.22 326.73,362.46 134.97,109.29 281.39,190.09 420.75,247.14 70.63,27.14 138.04,50.97 203.76,66.94 32.66,8.25 63.82,16.57 94.65,22.39 30.89,5.68 60.57,10.62 88.91,14.89 56.23,9.41 108.9,12.14 154.45,14.78 22.86,1.09 43.94,2.15 63.62,2.18 19.72,-0.48 37.8,-0.96 54.12,-1.38 64.95,-2.57 100.86,-7.07 100.86,-7.07z"/>
   <path class="fil0" d="M16593.27 14917.07c0,0 -66.77,-456.75 -355.87,-878.52 -289.07,-421.74 -690.96,-648.79 -690.96,-648.79 0,0 66.78,456.75 355.85,878.5 289.06,421.77 690.98,648.81 690.98,648.81z"/>
   <path class="fil0" d="M15513.81 15387.34c191.75,-279.03 138.08,-470.27 138.08,-470.27 0,0 50.75,119.89 253.66,119.89 202.96,0 295.98,-264.03 295.98,-264.03 -498.89,-148.97 -687.72,-619.53 -687.72,-619.53 0,0 -188.78,470.56 -687.67,619.53 0,0 93.01,264.03 295.96,264.03 202.93,0 253.67,-119.89 253.67,-119.89 0,0 -53.67,191.24 138.04,470.27z"/>
   <path class="fil0" d="M16409.46 14109.37c-3.02,0 -6.05,0 -9.06,0 -35.49,0 -69.5,-31.22 -67.84,-67.86 1.64,-36.75 29.81,-67.84 67.84,-67.84 3.01,0 6.04,0 9.06,0 35.49,0 69.47,31.18 67.83,67.84 -1.64,36.77 -29.8,67.86 -67.83,67.86l0 0z"/>
   <path class="fil0" d="M16599.43 14082.23c87.3,0 87.47,135.7 0,135.7 -87.33,0 -87.46,-135.7 0,-135.7l0 0z"/>
   <path class="fil0" d="M16843.69 14145.53c87.3,0 87.46,135.7 0,135.7 -87.33,0 -87.46,-135.7 0,-135.7l0 0z"/>
   <path class="fil0" d="M17078.89 14127.45c87.33,0 87.46,135.7 0,135.7 -87.29,0 -87.45,-135.7 0,-135.7l0 0z"/>
   <path class="fil0" d="M17513.13 15095.46c3.02,0 6.04,0 9.06,0 35.49,0 69.5,31.18 67.86,67.83 -1.67,36.78 -29.84,67.86 -67.86,67.86 -3.02,0 -6.04,0 -9.06,0 -35.5,0 -69.47,-31.22 -67.83,-67.86 1.63,-36.75 29.8,-67.83 67.83,-67.83l0 0z"/>
   <path class="fil0" d="M17721.22 15131.62c87.3,0 87.46,135.7 0,135.7 -87.33,0 -87.46,-135.7 0,-135.7l0 0z"/>
   <path class="fil0" d="M17938.34 15068.32c87.29,0 87.46,135.69 0,135.69 -87.33,0 -87.46,-135.69 0,-135.69l0 0z"/>
   <path class="fil0" d="M18101.18 14842.14c87.29,0 87.46,135.7 0,135.7 -87.33,0 -87.46,-135.7 0,-135.7l0 0z"/>
   <path class="fil0" d="M21018.14 14993.16c0,0 -6.91,3.44 -20.04,9.99 -13.46,6.04 -31.44,17.66 -57.36,28.03 -50.01,23.58 -125.81,51.42 -223.03,73.17 -97.12,22.13 -217.44,33.73 -351.85,27.75 -134.36,-6.2 -282.58,-32.24 -431.45,-80.23 -302.2,-99.59 -558.91,-265.52 -739.45,-396.2 -90.45,-65.53 -162.68,-121.99 -212.3,-161.79 -49.75,-39.92 -77.25,-62.02 -77.25,-62.02 0,0 23.58,26.37 67.58,72.59 44,46.22 108.95,111.55 193.29,186.93 84.3,75.35 188.79,159.88 312.73,240.08 123.68,80.29 267.87,154.65 426.91,207.45 158.03,50.97 316.72,72.75 458.74,70.44 142.19,-2.48 267.36,-26.63 365.35,-60.9 98.22,-33.94 171.06,-73.26 217.6,-104.74 24.21,-14.32 40.43,-29.06 52.58,-37.25 11.75,-8.74 17.95,-13.3 17.95,-13.3z"/>
   <path class="fil0" d="M20987.6 15235.91c0,0 -7.65,2.89 -22.3,7.93 -14.7,4.95 -36.03,13.04 -63.81,22.06 -56.11,16.67 -137.57,39.06 -239.95,52.78 -204.11,28.51 -492.35,16.6 -788.06,-80.66 -296,-97.44 -541.28,-246.3 -712.88,-360.68 -85.86,-57.65 -153.53,-107.4 -200.55,-141.61 -46.64,-34.75 -72.46,-53.95 -72.46,-53.95 0,0 22.48,23.09 63.14,64.81 41.59,40.85 102.26,99.67 182.31,167.3 80.03,67.55 179.76,143.8 298.92,217.09 118.7,73.71 258.29,142.61 413.04,194.09 155.86,49.91 311.16,75.28 452.73,77.69 141.61,3.4 268.93,-13.33 372.35,-39.09 103.68,-25.63 183.17,-59.61 236.67,-84.47 26.53,-13.13 46.51,-24.57 60.19,-31.8 13.66,-7.32 20.66,-11.49 20.66,-11.49z"/>
   <path class="fil0" d="M20748.13 15500.69c0,0 -6.75,1.06 -19.57,3.08 -12.81,2.38 -31.76,4.69 -56.13,7.13 -24.39,2.41 -54.09,6.62 -88.59,7.9 -17.22,1 -35.62,2.06 -55.12,3.18 -19.46,0.23 -40.01,0.45 -61.6,0.71 -86.11,-0.03 -188.08,-5.01 -298.98,-21.84 -110.91,-16.67 -230.83,-43.78 -353.27,-83.73 -242.72,-79.75 -445.22,-187.41 -585.93,-270.82 -70.82,-41.46 -126.23,-77.43 -164.58,-102.17 -19.32,-12.26 -34.01,-22.1 -43.93,-28.81 -9.99,-6.62 -15.25,-10.11 -15.25,-10.11 0,0 4.71,4.2 13.64,12.2 8.94,8.03 22.16,19.78 39.83,34.39 35.04,29.43 86.21,71.79 153.52,120.1 133.33,96.9 333.32,221.1 583.65,303.42 126.45,41.27 251.33,65.45 366.02,76.79 114.76,11.53 219.43,8.84 306.73,1.15 21.8,-2.24 42.55,-4.42 62.21,-6.45 19.59,-3.12 38.06,-6.04 55.31,-8.77 34.5,-4.88 63.95,-12.46 87.96,-17.73 24.03,-5.27 42.57,-9.92 55.06,-13.97 12.46,-3.69 19.02,-5.65 19.02,-5.65z"/>
   <path class="fil0" d="M17045.68 13266.62c0,0 -202.83,-253.73 -528.14,-417.5 -325.33,-163.77 -649.94,-175.56 -649.94,-175.56 0,0 202.81,253.73 528.14,417.51 325.32,163.77 649.94,175.55 649.94,175.55z"/>
   <path class="fil0" d="M16534.33 11068.33c4.95,18.92 -23.64,38.51 -54.06,77.32 -3.72,4.81 -7.61,9.88 -11.71,15.18 -3.47,5.82 -7.07,11.92 -10.8,18.25 -4.17,5.74 -7.22,12.91 -10.44,20.14 -3.08,7.32 -7.42,13.87 -9.6,22.35 -12.3,31.13 -20.04,69.73 -19.68,111.54 0.25,41.54 8.76,87.21 30.31,125.3 5.75,9.18 10.41,19.27 17.86,26.97 3.47,4.08 6.42,8.62 9.98,12.6 4.06,3.46 7.97,7.03 11.79,10.69 6.56,7.93 18.34,13.5 27.12,20.84 10.56,5.47 20.48,12.11 32.02,16.45 88.35,40.73 225.78,20.33 316.84,-56.3 12.04,-8.77 21.23,-20.07 31.73,-30.22 8.71,-11.5 18.31,-21.88 26.14,-35.59 16.58,-25.76 30.17,-54.15 39.16,-84.92 19.27,-60.96 22.67,-129.83 12.52,-197.27 -10.31,-67.57 -34.88,-133.54 -70.3,-190.75 -18.6,-29.04 -39.64,-56.79 -62.7,-82.7 -23.57,-25.6 -49.01,-49.5 -75.83,-71.69 -108.2,-87.87 -240.88,-144.27 -362.03,-175.49 -121.32,-29.49 -238.42,-30.42 -334.48,-18.63 -98.73,11.53 -195.95,37.38 -285.94,77.53 -90.19,39.53 -173.02,94.21 -240.41,162.26 -67.64,67.77 -118.58,150.06 -143.57,240.54 -12.68,45.09 -19.62,92.11 -19.66,139.36 -1.02,11.78 -0.38,23.6 0.84,35.39l2.57 35.39c3.51,23.45 7.8,46.93 12.97,70.14 48.06,185.94 183.91,350.26 354.01,455.7 85.47,53.67 177.71,92.37 277.31,116.58 99.47,24.03 202.82,34.83 307.34,35.63 263.01,1.15 526.67,-59.49 789.39,-129.12 263.14,-69.06 524.24,-150.79 786.1,-233.88 523.58,-166.47 1051.22,-344.95 1606.15,-456.76 277.25,-55.91 560.46,-93.07 847.28,-104.86 286.78,-10.02 577.83,4.21 865.19,60.25 72.05,12.18 143.09,30.99 214.42,48.06 35.62,8.89 70.63,20.45 105.96,30.67 35.27,10.47 70.63,20.68 105.15,33.85l104.13 37.51c34.37,13.49 68.15,28.59 102.23,42.92l51 21.83c16.94,7.65 33.51,16.54 50.27,24.8l100.18 50.75c32.44,18.52 64.36,37.92 96.52,56.97l48.08 28.78 46.18 31.6 91.89 63.82 87.55 69.57 43.58 34.98 41.37 37.61 82.29 75.64 77.15 80.9 38.38 40.59 35.72 43.08c138.26,163.13 251.35,346.23 328.37,527.03 78.82,180.24 115.08,359.43 126.9,505.28 2.12,35.36 3.59,68.47 4.5,99.3 0.19,30.94 -3.35,60.06 -5.37,86.63 -2.47,26.65 -5.3,51 -8.38,73.1 -2.8,22.09 -9.67,42.04 -14.42,59.7 -21.07,70.66 -42.98,105.47 -64.02,107.66 -21.04,2.22 -41.43,-28.07 -59.67,-87.42 -9.12,-29.68 -16.35,-66.68 -30.07,-110.58 -12.45,-43.91 -21.93,-95.08 -41.39,-152.18 -7.42,-24.79 -14.81,-50.56 -22.13,-77.21 -9.58,-26.14 -19.5,-53.22 -29.74,-81.13 -17.28,-56.37 -46.64,-112.87 -70.89,-173.21 -57.75,-117.81 -127.6,-242.01 -215.02,-362.1 -88.75,-119.09 -191.81,-234.59 -304.97,-339.53 -113.09,-105.18 -238.8,-195.79 -364.28,-273.48l-83.96 -49.85 -86.75 -44.06 -43.36 -22.04 -45.19 -19.52c-30.16,-12.91 -60.02,-26.5 -90.35,-39.03 -61.89,-22.09 -122.36,-47.72 -185.7,-65.87 -31.48,-9.54 -62.44,-20.59 -94.24,-29.07l-95.58 -25.08c-128.06,-31 -257.94,-56.37 -389.75,-71.62 -131.4,-17.47 -264.43,-25.48 -397.69,-29.2 -534.73,-13.65 -1070.59,73.48 -1602.08,197.4 -532.29,123.72 -1062.3,283.02 -1608.05,410.11 -271.78,62.31 -550.73,126.19 -842.59,132.2 -145.37,2.41 -293.69,-10.6 -437.63,-49.68 -145.02,-38.1 -283.49,-108.21 -400.84,-203.67 -50.39,-39.15 -104.9,-92.46 -159.41,-159.46 -53.89,-67.35 -106.4,-151.19 -141.19,-253.28 -34.84,-101.5 -50.04,-222.27 -28.91,-346.2 20.66,-124.11 81.84,-248.92 173.44,-349.71 91.22,-101.52 209.19,-180.82 338.78,-236 129.79,-55.15 271.99,-87.1 417.89,-92.4 72.95,-2.58 146.91,1.57 220.36,13.96 36.56,6.3 73.62,14.46 109.17,24.45 35.3,9.7 70.15,21.36 104.65,34.2 137.46,51.87 269.3,130.31 374.5,240.95 51.99,55.25 97.15,118.33 130.97,188.21 33.18,69.48 54.05,143.22 63.4,217.96 18.76,148.55 -14.74,306.98 -105.7,426.79 -46.73,61.43 -105.95,107.55 -168.46,139.55 -62.66,31.99 -129.15,50.36 -195.34,55.88 -66.13,5.46 -132.46,-2.21 -193.19,-23.74 -60.96,-21.61 -114.5,-56.32 -156.58,-101.39 -42.68,-45.83 -69.86,-99.53 -82.45,-150.82 -12.74,-51.4 -16.25,-100.63 -10.75,-145.37 9.38,-89.68 47.14,-161.46 89.96,-208.45 43.52,-47.6 91.92,-67.83 124.04,-73.55 33.53,-3.72 50.94,2.44 53.7,13.39z"/>
   <path class="fil0" d="M17368.41 11540.12c87.29,0 87.46,135.7 0,135.7 -87.34,0 -87.49,-135.7 0,-135.7l0 0z"/>
   <path class="fil0" d="M17612.66 11440.58c87.3,0 87.46,135.7 0,135.7 -87.33,0 -87.46,-135.7 0,-135.7l0 0z"/>
   <path class="fil0" d="M17847.86 11359.16c87.33,0 87.46,135.7 0,135.7 -87.33,0 -87.45,-135.7 0,-135.7l0 0z"/>
   <path class="fil0" d="M18150.93 11336.56c0,3.01 0,6.03 0,9.05 0,35.49 -31.22,69.51 -67.87,67.83 -36.74,-1.64 -67.83,-29.81 -67.83,-67.83 0,-3.02 0,-6.04 0,-9.05 0,-35.5 31.22,-69.48 67.83,-67.84 36.78,1.64 67.87,29.81 67.87,67.84l0 0z"/>
   <path class="fil0" d="M18336.38 11241.58c87.33,0 87.46,135.7 0,135.7 -87.3,0 -87.45,-135.7 0,-135.7l0 0z"/>
   <path class="fil0" d="M22504.85 14278.4c19.37,6.87 42.49,10.12 69.92,0.1 27.24,-10.09 60.13,-33.15 93.66,-81.23 34.04,-47.82 69.76,-120.89 95.78,-229.67 25.78,-108.44 41.3,-253.73 18.59,-437.38 -23.25,-183.15 -93.33,-384.52 -204.75,-558.7 -110.3,-174.72 -258.04,-317.87 -402.09,-418.56 -144.27,-101.72 -285.05,-160.43 -385.64,-193.32 -50.75,-15.99 -91.28,-26.98 -119.71,-32.72 -28.06,-6.08 -43.41,-9.38 -43.41,-9.38 0,0 12.84,8.96 36.39,25.34 23.63,15.76 56.78,40.88 96.6,72.65 79.15,64.42 182.63,161.04 276.47,285.26 94.31,123.7 179.39,272.92 236.4,427.24 57.75,153.95 88.42,312.32 106.69,453.67 17.47,141.7 19.3,253.58 21.49,342.21 2.12,88.72 4.98,154.79 12.4,204.72 8.09,50.18 19.91,84 36.41,107.34 16.29,23.36 36.05,35.76 54.8,42.43z"/>
   <path class="fil0" d="M24497.68 11667.69c-8.51,-5.75 -19.82,-8.77 -34.49,-7.8 -7.32,0.48 -15.48,1.95 -24.41,4.49 -9.51,2.12 -20.11,5.14 -31.41,9.32 -23.99,7.13 -52.43,18.23 -90.19,27.14 -37.52,8.44 -84.53,16.21 -138.43,11.23 -26.72,-2.34 -55.06,-7.76 -82.03,-18.59 -27.23,-10.66 -51.78,-25.63 -75.6,-48.14 -23.39,-22.52 -46.8,-51.27 -62.63,-87.79 -16.58,-35.71 -26.25,-78.01 -24.19,-118.29 0.73,-20.55 4.05,-38.76 12.04,-58.09 1.9,-4.86 3.6,-9.8 5.11,-14.82l7.74 -14c3.79,-9.92 11.69,-18.43 17.66,-27.9 26.59,-36.68 72.84,-71.28 132.59,-97 30.58,-11.79 63.82,-22.01 99.5,-27.72 35.55,-4.69 73.03,-8.32 110.07,-4.37 9.5,-0.16 18.31,2.41 27.56,3.4 9.25,1.13 18.5,2.31 27.14,4.98 8.96,2.54 17.5,3.57 27.14,6.78 9.73,3.18 19.49,6.4 29.35,9.6 39.02,14.71 78.12,34.47 115.82,59.64 75.28,50.18 143.54,121.15 190.01,205.21 47.02,84.27 71.62,177 68.92,277.6 -2.4,100.04 -32.21,204.62 -86.3,294.46 -26.97,44.93 -59.87,86.13 -97.6,121.49l-14.13 13.37 -15.71 12.17c-10.57,8 -20.62,16.8 -31.51,24.54 -22.77,14.06 -44.55,30 -69.47,41.46 -23.48,13.85 -49.94,22.84 -75.38,34.08 -26.95,8.09 -53.06,18.72 -81.46,24.19 -55.43,14.57 -114.3,21.13 -173.79,24.09 -59.6,3.59 -120.38,-1.29 -180.88,-7.33 -60.42,-8.16 -120.8,-19.14 -179.83,-35.39 -59.29,-16.38 -116.34,-35.14 -173.57,-59.55 -57.45,-23.32 -113.47,-50.59 -168.58,-79.14 -110.11,-57.78 -215.74,-123.04 -317.82,-189.94 -204.07,-133.78 -395.98,-270.05 -583.23,-373.15 -186.41,-103.71 -365.37,-173.06 -519.12,-209.06 -76.73,-18.79 -147.55,-27.07 -208.99,-32.63 -61.83,-3.66 -114.67,-3.14 -157.45,0 -21.28,1.99 -40.18,3.76 -56.52,5.27 -16.19,2.63 -29.84,4.85 -40.89,6.64 -21.94,3.66 -33.37,5.59 -33.37,5.59 0,0 11.6,-0.35 33.86,-1.06 11.04,-0.32 24.76,-0.7 40.98,-1.16 16.22,0.65 34.94,1.36 56.08,2.19 42.1,2.41 93.45,8.64 152.3,19.69 58.58,12.97 124.93,29.33 195.79,56.27 142.06,52.48 303.03,138.24 468.99,257.14 166.4,118.06 337.75,270.27 531.81,428.36 97.12,78.98 201.12,158.85 315.3,233.59 57.3,37.07 116.78,73.3 179.8,106.05 62.31,33.63 130.49,63.6 199.45,89.26 69.35,25.79 141.61,45.87 215.64,62.15 74.55,14.19 150.67,26.34 229.17,28.27 78.2,2.56 158.2,-0.2 238.5,-14.4 40.22,-5.2 80.14,-16.69 120.22,-26.4 39.47,-13.2 79.56,-24.83 117.94,-42.94 155.32,-64.36 296.67,-180.89 392.42,-322.27 96.48,-141.19 153.72,-305.9 165.62,-475.28 5.95,-84.6 0.21,-170.68 -17.81,-254.02 -17.97,-83.32 -47.57,-162.4 -85.89,-235.08 -76.61,-145.66 -188.12,-265.36 -317.68,-352.08 -64.81,-43.33 -133.55,-77.88 -204.05,-103.42 -17.91,-5.71 -35.71,-11.39 -53.35,-17.02 -17.75,-5.46 -37.51,-9.21 -56.01,-13.55 -18.79,-4.7 -37.42,-7.29 -55.94,-9.54 -18.48,-2.09 -36.98,-5.43 -55.09,-5.63 -145.75,-9.02 -279.94,19.82 -398.36,73.11 -117.33,55.08 -221.36,137.5 -289.51,244.61 -16.38,27.17 -32.8,53.48 -44,82.55 -6.04,14.19 -12.11,28.26 -17.38,42.42 -4.11,14.58 -8.19,29.04 -12.2,43.39 -16.04,57.23 -20.82,117.46 -17.06,171.58 6.91,109.68 42.94,203.34 90.96,279.11 47.53,76.37 109.9,134.7 175.26,176.64 65.53,42.08 136.67,65.59 199.82,73.97 63.53,8.93 120.4,4.4 169.45,-5.52 98.41,-20.27 166.31,-62.12 212.66,-100.92 46.37,-39.7 70.75,-78.69 84.66,-108.11 6.39,-15.45 10.43,-28.42 12.65,-39.47 1.64,-11.56 1.64,-20.97 0.55,-28.71 -2.25,-15.45 -8.96,-24.26 -17.22,-29.81z"/>
   <polygon class="fil0" points="1037.6,11394.43 29996.51,11394.43 29996.51,11306.52 1037.6,11306.52 "/>
   <path class="fil0" d="M29861.94 12059.72c0,0 -11.56,-9.73 -30.52,-27.43 -18.29,-17.53 -44.96,-42.59 -76.75,-72.84 -15.42,-14.93 -32.44,-31.19 -50.43,-48.47 -17.02,-17.47 -36.29,-35.23 -55.24,-54.57 -38.22,-37.93 -78.37,-79.42 -118.2,-124.74 -40.14,-44.97 -76.76,-89.67 -109.52,-132.45 -17.02,-20.85 -32.43,-42.11 -47.86,-61.39 -14.77,-19.84 -28.9,-38.53 -42.07,-55.72 -26.02,-35.33 -47.86,-64.59 -62.95,-85.05 -15.42,-20.78 -23.58,-33.5 -23.58,-33.5 0,0 14.59,0.52 40.92,3.76 6.75,0.9 13.81,1.89 21.84,2.96 8.03,1.31 16.38,3.11 25.37,5.04 18.31,4.04 39.19,8.61 61.35,16.06 10.92,3.56 22.49,7.48 34.69,11.78 11.89,4.37 23.77,9.74 36.61,15.2 25.06,10.7 50.75,24.7 77.41,40.21 52.35,32.02 105.66,74.07 152.88,126.8 46.57,53.06 81.9,111.26 107.59,166.98 12.21,28.27 22.81,55.28 30.52,81.74 3.85,13.14 7.7,25.7 10.6,38.13 2.88,12.46 5.45,24.47 7.7,35.91 4.83,22.7 6.75,44.1 8.68,62.56 0.63,9.29 1.6,17.85 1.93,25.86 0,8.03 0.32,15.38 0.32,22.03 0,26.47 -1.29,41.14 -1.29,41.14z"/>
   <path class="fil0" d="M30204 11789.87c0,0 -185.96,-27.18 -357.8,-144.86 -171.51,-117.65 -264.01,-281.25 -264.01,-281.25 0,0 185.97,27.17 357.48,144.85 171.83,117.68 264.33,281.26 264.33,281.26z"/>
   <path class="fil0" d="M29875.11 11715.06c0,-1.25 0,-2.47 0,-3.69 0,-14.46 -12.85,-28.29 -27.63,-27.62 -15.09,0.67 -27.62,12.14 -27.62,27.62 0,1.22 0,2.44 0,3.69 0,14.42 12.85,28.27 27.62,27.62 15.1,-0.67 27.63,-12.13 27.63,-27.62l0 0z"/>
   <path class="fil0" d="M29864.19 11792.37c0,35.56 55.24,35.62 55.24,0 0,-35.52 -55.24,-35.59 -55.24,0l0 0z"/>
   <path class="fil0" d="M29889.88 11891.81c0,35.55 55.25,35.59 55.25,0 0,-35.55 -55.25,-35.59 -55.25,0l0 0z"/>
   <path class="fil0" d="M29882.5 11987.55c0,35.55 55.24,35.59 55.24,0 0,-35.55 -55.24,-35.59 -55.24,0l0 0z"/>
   <path class="fil0" d="M29532.08 11974.03c0,0 -103.41,-82.54 -169.89,-214.96 -66.81,-132.43 -71.63,-264.59 -71.63,-264.59 0,0 103.42,82.58 169.91,215 66.8,132.42 71.61,264.55 71.61,264.55z"/>
   <path class="fil0" d="M29847.48 10628.93c0,0 -11.23,10.18 -29.22,28.64 -17.99,18.28 -43.36,44.4 -73.87,75.93 -15.1,15.58 -31.16,32.51 -48.5,50.5 -16.38,18.17 -35.01,36.7 -52.67,56.81 -36.94,39.51 -75.16,82.61 -113.06,129.53 -38.55,46.57 -72.9,92.76 -104.38,136.82 -16.06,21.55 -30.52,43.43 -44.96,63.31 -14.14,20.46 -27.31,39.7 -39.84,57.43 -24.72,36.36 -44.96,66.48 -59.41,87.58 -14.46,21.39 -22.16,34.43 -22.16,34.43 0,0 14.77,-1.15 40.79,-5.46 6.42,-1.16 13.81,-2.44 21.84,-3.85 7.7,-1.64 16.06,-3.79 25.04,-6.1 17.99,-4.75 38.87,-10.18 60.39,-18.54 10.92,-4.01 22.48,-8.41 34.36,-13.23 11.56,-4.81 23.46,-10.69 35.66,-16.67 25.05,-11.72 49.78,-26.75 75.8,-43.36 51.06,-34.17 102.78,-78.36 147.74,-133 44.32,-54.95 77.41,-114.53 100.53,-171.29 10.92,-28.74 20.55,-56.17 27.3,-82.92 3.21,-13.3 6.74,-25.98 8.99,-38.55 2.25,-12.55 4.18,-24.63 6.1,-36.16 3.86,-22.9 4.82,-44.35 6.1,-62.88 0.33,-9.32 0.65,-17.89 0.65,-25.89 0,-8.03 -0.32,-15.39 -0.32,-22.04 -1.28,-26.43 -2.9,-41.04 -2.9,-41.04z"/>
   <path class="fil0" d="M30204 10911.12c0,0 -185.96,27.17 -357.8,144.81 -171.51,117.69 -264.01,281.3 -264.01,281.3 0,0 185.97,-27.2 357.48,-144.86 171.83,-117.67 264.33,-281.25 264.33,-281.25z"/>
   <path class="fil0" d="M30395.42 11350.49c-113.7,-78.05 -191.42,-56.21 -191.42,-56.21 0,0 48.82,-20.64 48.82,-103.26 0,-82.6 -107.6,-120.47 -107.6,-120.47 -60.7,203.09 -252.12,279.94 -252.12,279.94 0,0 191.42,76.86 252.12,279.94 0,0 107.6,-37.86 107.6,-120.47 0,-82.61 -48.82,-103.26 -48.82,-103.26 0,0 77.72,21.84 191.42,-56.21z"/>
   <path class="fil0" d="M29875.11 10985.92c0,1.22 0,2.47 0,3.7 0,14.45 -12.85,28.26 -27.63,27.61 -15.09,-0.67 -27.62,-12.14 -27.62,-27.61 0,-1.23 0,-2.48 0,-3.7 0,-14.46 12.85,-28.3 27.62,-27.62 15.1,0.67 27.63,12.13 27.63,27.62l0 0z"/>
   <path class="fil0" d="M29864.19 10908.58c0,-35.53 55.24,-35.59 55.24,0 0,35.55 -55.24,35.62 -55.24,0l0 0z"/>
   <path class="fil0" d="M29889.88 10809.17c0,-35.55 55.25,-35.62 55.25,0 0,35.52 -55.25,35.59 -55.25,0l0 0z"/>
   <path class="fil0" d="M29882.5 10713.43c0,-35.55 55.24,-35.62 55.24,0 0,35.52 -55.24,35.59 -55.24,0l0 0z"/>
   <path class="fil0" d="M29532.08 10726.95c0,0 -103.41,82.55 -169.89,214.97 -66.81,132.42 -71.63,264.55 -71.63,264.55 0,0 103.42,-82.54 169.91,-214.96 66.8,-132.42 71.61,-264.56 71.61,-264.56z"/>
   <path class="fil0" d="M1132.96 12059.72c0,0 11.65,-9.73 30.45,-27.43 18.5,-17.53 44.93,-42.59 76.85,-72.84 15.52,-14.93 32.38,-31.19 50.3,-48.47 17.31,-17.47 36.58,-35.23 55.24,-54.57 38.48,-37.93 78.5,-79.42 118.32,-124.74 40.25,-44.97 76.64,-89.67 109.69,-132.45 16.95,-20.85 32.28,-42.11 47.56,-61.39 15.01,-19.84 29.11,-38.53 42.08,-55.72 26.2,-35.33 47.92,-64.59 63.11,-85.05 15.33,-20.78 23.57,-33.5 23.57,-33.5 0,0 -14.7,0.52 -40.97,3.76 -6.59,0.9 -13.88,1.89 -21.85,2.96 -7.9,1.31 -16.31,3.11 -25.41,5.04 -18.1,4.04 -39.11,8.61 -61.08,16.06 -11.11,3.56 -22.7,7.48 -34.75,11.78 -12.02,4.37 -24,9.74 -36.59,15.2 -25.34,10.7 -50.87,24.7 -77.47,40.21 -52.25,32.02 -105.79,74.07 -152.88,126.8 -46.73,53.06 -82.03,111.26 -107.55,166.98 -12.24,28.27 -23.07,55.28 -30.65,81.74 -3.92,13.14 -7.84,25.7 -10.7,38.13 -2.86,12.46 -5.36,24.47 -7.55,35.91 -4.77,22.7 -6.77,44.1 -8.6,62.56 -0.84,9.29 -1.6,17.85 -1.96,25.86 -0.12,8.03 -0.25,15.38 -0.35,22.03 -0.04,26.47 1.19,41.14 1.19,41.14z"/>
   <path class="fil0" d="M791.06 11789.87c0,0 185.94,-27.18 357.61,-144.86 171.67,-117.65 264.07,-281.25 264.07,-281.25 0,0 -185.9,27.17 -357.58,144.85 -171.67,117.68 -264.1,281.26 -264.1,281.26z"/>
   <path class="fil0" d="M1119.85 11715.06c0,-1.25 0,-2.47 0,-3.69 0,-14.46 12.69,-28.29 27.6,-27.62 14.95,0.67 27.61,12.14 27.61,27.62 0,1.22 0,2.44 0,3.69 0,14.42 -12.68,28.27 -27.61,27.62 -14.94,-0.67 -27.6,-12.13 -27.6,-27.62l0 0z"/>
   <path class="fil0" d="M1130.87 11792.37c0,35.56 -55.21,35.62 -55.21,0 0,-35.52 55.21,-35.59 55.21,0l0 0z"/>
   <path class="fil0" d="M1105.11 11891.81c0,35.55 -55.24,35.59 -55.24,0 0,-35.55 55.24,-35.59 55.24,0l0 0z"/>
   <path class="fil0" d="M1112.47 11987.55c0,35.55 -55.25,35.59 -55.25,0 0,-35.55 55.25,-35.59 55.25,0l0 0z"/>
   <path class="fil0" d="M1462.87 11974.03c0,0 103.29,-82.54 169.94,-214.96 66.68,-132.43 71.47,-264.59 71.47,-264.59 0,0 -103.3,82.58 -169.95,215 -66.68,132.42 -71.46,264.55 -71.46,264.55z"/>
   <path class="fil0" d="M1147.57 10628.93c0,0 11.24,10.18 29.26,28.64 17.79,18.28 43.17,44.4 73.8,75.93 14.91,15.58 31.07,32.51 48.29,50.5 16.56,18.17 35.06,36.7 52.92,56.81 36.91,39.51 75.19,82.61 113.09,129.53 38.35,46.57 72.87,92.76 104.16,136.82 16.06,21.55 30.51,43.43 45,63.31 14.16,20.46 27.46,39.7 39.72,57.43 24.74,36.36 45.19,66.48 59.52,87.58 14.45,21.39 22.19,34.43 22.19,34.43 0,0 -14.67,-1.15 -40.79,-5.46 -6.55,-1.16 -13.78,-2.44 -21.67,-3.85 -7.84,-1.64 -16.19,-3.79 -25.22,-6.1 -17.92,-4.75 -38.7,-10.18 -60.38,-18.54 -10.92,-4.01 -22.35,-8.41 -34.21,-13.23 -11.81,-4.81 -23.57,-10.69 -35.9,-16.67 -24.9,-11.72 -49.82,-26.75 -75.77,-43.36 -50.91,-34.17 -102.65,-78.36 -147.52,-133 -44.48,-54.95 -77.4,-114.53 -100.59,-171.29 -11.08,-28.74 -20.79,-56.17 -27.27,-82.92 -3.34,-13.3 -6.75,-25.98 -9.09,-38.55 -2.34,-12.55 -4.34,-24.63 -6.07,-36.16 -3.82,-22.9 -4.95,-44.35 -6.04,-62.88 -0.41,-9.32 -0.87,-17.89 -0.87,-25.89 0.19,-8.03 0.39,-15.39 0.55,-22.04 1.06,-26.43 2.89,-41.04 2.89,-41.04z"/>
   <path class="fil0" d="M791.06 10911.12c0,0 185.94,27.17 357.61,144.81 171.67,117.69 264.07,281.3 264.07,281.3 0,0 -185.9,-27.2 -357.58,-144.86 -171.67,-117.67 -264.1,-281.25 -264.1,-281.25z"/>
   <path class="fil0" d="M599.64 11350.49c113.57,-78.05 191.42,-56.21 191.42,-56.21 0,0 -48.82,-20.64 -48.82,-103.26 0,-82.6 107.5,-120.47 107.5,-120.47 60.64,203.09 252.16,279.94 252.16,279.94 0,0 -191.52,76.86 -252.16,279.94 0,0 -107.5,-37.86 -107.5,-120.47 0,-82.61 48.82,-103.26 48.82,-103.26 0,0 -77.85,21.84 -191.42,-56.21z"/>
   <path class="fil0" d="M1119.85 10985.92c0,1.22 0,2.47 0,3.7 0,14.45 12.69,28.26 27.6,27.61 14.95,-0.67 27.61,-12.14 27.61,-27.61 0,-1.23 0,-2.48 0,-3.7 0,-14.46 -12.68,-28.3 -27.61,-27.62 -14.94,0.67 -27.6,12.13 -27.6,27.62l0 0z"/>
   <path class="fil0" d="M1130.87 10908.58c0,-35.53 -55.21,-35.59 -55.21,0 0,35.55 55.21,35.62 55.21,0l0 0z"/>
   <path class="fil0" d="M1105.11 10809.17c0,-35.55 -55.24,-35.62 -55.24,0 0,35.52 55.24,35.59 55.24,0l0 0z"/>
   <path class="fil0" d="M1112.47 10713.43c0,-35.55 -55.25,-35.62 -55.25,0 0,35.52 55.25,35.59 55.25,0l0 0z"/>
   <path class="fil0" d="M1462.87 10726.95c0,0 103.29,82.55 169.94,214.97 66.68,132.42 71.47,264.55 71.47,264.55 0,0 -103.3,-82.54 -169.95,-214.96 -66.68,-132.42 -71.46,-264.56 -71.46,-264.56z"/>
  </g>
 </g>
</svg>
