<?xml version="1.0" encoding="UTF-8"?>
<!DOCTYPE svg PUBLIC "-//W3C//DTD SVG 1.1//EN" "http://www.w3.org/Graphics/SVG/1.1/DTD/svg11.dtd">
<!-- Creator: CorelDRAW 2019 (64 Bit) -->
<svg xmlns="http://www.w3.org/2000/svg" xml:space="preserve" width="310mm" height="260mm" version="1.1" style="shape-rendering:geometricPrecision; text-rendering:geometricPrecision; image-rendering:optimizeQuality; fill-rule:evenodd; clip-rule:evenodd"
viewBox="0 0 31000 26000"
 xmlns:xlink="http://www.w3.org/1999/xlink">
  <defs>
 
  <style type="text/css">
   <![CDATA[
    .fil0 {fill:#501914;fill-rule:nonzero}
   ]]>
  </style>
 </defs>
 <g id="Camada_x0020_1">
  <metadata id="CorelCorpID_0Corel-Layer"/>
  <g id="_1598122733568">
   <path class="fil0" d="M9586.78 12352.81c9.22,10.09 25.09,15.67 49.52,14.49 24.29,-1.13 58.53,-7.61 105.55,-14.36 47.18,-6.2 108.17,-11.31 187.15,1.16 78.24,12.68 177.42,45.28 280.19,118.03 50.82,36.39 101.92,83.09 144.28,140.65 42.88,57.01 75.54,125.23 87.43,197.3 13.36,80.55 12.17,173.31 -15.49,270.33 -27.23,96.9 -75.28,201.16 -153.32,299.41 -75.81,99.05 -178.78,192.48 -301.47,265.3 -123.97,69.17 -273.45,124.04 -440.08,144.88 -41.17,8.15 -84.63,6.78 -127.93,10.37 -43.45,2.54 -88.06,-1.95 -133.06,-1.86 -89.84,-9.32 -182.85,-20.75 -275.03,-48.37 -93.46,-23.03 -184.2,-62.99 -274.64,-107.08 -42.87,-26.08 -89.32,-48.21 -129.92,-79.56 -20.55,-15.19 -43.42,-28.01 -62.78,-45.06 -19.76,-16.57 -39.67,-33.24 -59.68,-50.04 -154.91,-138.97 -273.04,-320.38 -335.73,-536.11 -64.1,-213.85 -71.98,-455.18 -21.39,-686.04 26.81,-114.93 66.42,-227.5 120.93,-332.56 56.78,-103.68 126.35,-198.68 209.4,-282.69 45.13,-39.61 86.88,-83.74 137.82,-117.18l36.59 -27.14c12.07,-9.25 24.11,-18.56 37.76,-25.69l79.15 -46.86c108.77,-57.33 224.44,-107.3 348.83,-137.05 246.15,-67.63 514.49,-74.51 777.44,-46.18 263.6,30.35 522.76,104.29 764.03,207.57 243.97,109.05 475.87,243.3 695.26,390.98 219.33,148.13 427.62,307.11 628.84,465.07 401.83,316.68 779.7,626.81 1153.84,861.37 372.38,235.14 731.52,401.74 1045.7,490.51 19.49,5.78 38.77,11.53 57.81,17.18 19.3,4.66 38.39,9.29 57.17,13.84 37.62,8.87 74.2,17.48 109.71,25.86 35.98,6.3 70.86,12.43 104.65,18.34 16.86,2.95 33.47,5.85 49.78,8.71 16.48,1.83 32.67,3.66 48.59,5.42 63.63,7.04 122.41,14.42 177.05,14.97 54.4,2.12 103.83,5.2 148.38,2.25 44.44,-1.68 83.79,-2.31 117.71,-4.4 33.82,-3.73 62.41,-6.85 85.47,-9.39 45.92,-5.07 69.92,-7.73 69.92,-7.73 0,0 -24.13,0.58 -70.38,1.67 -23.06,0.57 -51.61,1.28 -85.43,2.09 -33.81,-0.78 -72.87,-3.45 -116.78,-5.47 -43.97,-0.73 -92.59,-7.86 -145.78,-14.32 -53.38,-4.91 -110.58,-16.99 -172.09,-28.88 -15.35,-2.98 -30.99,-6 -46.9,-9.12 -15.73,-4.08 -31.7,-8.22 -47.95,-12.45 -32.4,-8.39 -65.84,-17.07 -100.33,-26.02 -33.92,-10.89 -68.8,-22.13 -104.71,-33.66 -17.85,-5.88 -35.97,-11.82 -54.34,-17.83 -18.06,-6.96 -36.33,-14.03 -54.83,-21.17 -297.6,-110.03 -632.05,-297.56 -975.94,-551.53 -344.91,-252.93 -692.53,-581.17 -1076.43,-927.02 -192.48,-172.6 -395.25,-349.19 -615.61,-518.57 -220.56,-168.92 -460.99,-328.71 -723.59,-464.2 -268.21,-133.49 -558.56,-233.69 -863.66,-284.86 -304.73,-48.63 -625.17,-57.49 -941.79,13.35 -158.56,31.29 -313.96,88.55 -462.66,160.21l-109.49 59.14c-18.56,9.27 -35.75,21.03 -52.97,32.82l-51.74 35.04c-70.88,44.26 -132.38,101.14 -196.14,154.94 -123.59,115.33 -229.04,249.56 -312.96,393.31 -81.77,145.14 -141.51,299.64 -182.33,457.27 -78.12,316.01 -75.45,646.31 10.76,953.17 40.09,154.16 108.33,300.08 189.82,435.1 21.71,33.14 43.36,66.16 64.94,99.05 24.63,30.71 49.17,61.28 73.61,91.76 23.77,31.22 51.2,58.52 78.37,85.95 27.63,26.79 52.96,56.27 82.61,80.13 29.2,24.41 58.19,48.66 86.97,72.75 28.72,24.29 60.42,43.49 90.32,65.04 59.45,44 123.94,76.6 185.67,112.15 127.29,62.64 255.12,115.6 384.75,147.07 128.47,36.1 257.55,51.72 382.78,61.32 63.05,0.09 125.03,3.79 186.18,-0.48 61.13,-5.4 121.47,-6.66 180.29,-18.47 236.55,-35.72 450.1,-119.1 633.33,-232.44 180.82,-116.97 322.89,-259.61 428.62,-414.03 107.24,-153.08 175.14,-321.21 206.9,-486.27 4.73,-20.4 7.68,-41.08 9.67,-61.89 2.25,-20.68 4.46,-41.11 6.65,-61.38 2.5,-40.82 2.09,-81.36 1.8,-120.63 -3.8,-39.54 -6.1,-78.34 -12.34,-115.83 -7.99,-37.8 -13.81,-73.03 -24.41,-110.12 -43.58,-151.05 -123.97,-267.77 -208.99,-353.82 -85.4,-86.88 -176.78,-146.17 -264.14,-187.85 -175.78,-82.52 -336.24,-95.55 -458.7,-77.89 -123.47,18.27 -207.33,65.23 -258.37,107.11 -51.23,42.91 -73.45,79.72 -82.03,105.79 -8.47,26.31 -4.56,41.56 4.34,51.33z"/>
   <path class="fil0" d="M7704.44 10566.85c14.26,23.36 46.25,40.6 113.76,38.16 33.95,-0.67 75.03,-9.34 131.24,-15.54 27.65,-3.95 58.06,-9.29 91.43,-16.22 34.31,-4.76 72.37,-9.25 113.41,-16.13 82.81,-11.88 182.08,-21.51 300.53,-26.17 119.09,-0.49 257.2,-1.29 418.34,23.09 160.68,22.42 343.66,61.6 546.58,130.33 203.03,69.16 424.89,165.06 658.3,309.01 237.16,142.93 478.37,321.15 721.85,520.09 243.64,198.87 489.44,418.7 742.41,638.16 126.26,109.68 254.73,219.16 385.61,325.32 130.66,106.25 260.48,207.9 393.67,307.02 265.33,197.49 537.75,375.59 809.92,514.01 271.46,139.49 539.43,242.62 786.13,310.71 124.45,30.51 240.78,61.47 351.94,77.47 55.37,8.6 107.82,20.3 159.31,25.15 51.26,5.23 100.33,10.25 147.06,15.03 23.29,2.35 46,4.62 68.09,6.84 22.24,0.83 43.88,1.64 64.88,2.44 41.89,1.35 81.29,2.61 118.1,3.79 73.33,4.14 136.34,0.23 187.5,-1.66 102.05,-4.08 157.71,-6.3 157.71,-6.3 0,0 -55.35,-5.98 -156.77,-16.89 -50.55,-5.47 -112.57,-10.51 -184.04,-24.8 -35.68,-6.2 -73.94,-12.85 -114.6,-19.91 -20.26,-3.6 -41.1,-7.3 -62.56,-11.08 -21.2,-5.18 -42.95,-10.45 -65.3,-15.87 -44.48,-10.76 -91.18,-22.04 -139.97,-33.83 -48.79,-11.27 -98.15,-29.51 -149.99,-44.73 -104.13,-29.23 -211.81,-73.69 -325.77,-117.33 -225.85,-94.42 -465.52,-222.19 -704.96,-382.01 -240.21,-158.95 -477.4,-353.14 -712.29,-566.5 -117.03,-106.31 -236.15,-218.89 -352.81,-332.13 -116.75,-113.06 -232.76,-229.68 -349.41,-347.68 -233.18,-235.52 -469.31,-475.64 -717.36,-697.89 -247.79,-222.07 -508.1,-426.53 -777.8,-589.21 -270.56,-166.72 -537.63,-277.01 -780.73,-348.83 -243.96,-71.91 -467.35,-104.77 -664.29,-113.25 -197.05,-10.44 -368.3,12.01 -511.36,38.54 -143.31,30.8 -259.29,70.72 -351.11,113.67 -45.71,22.45 -86.27,42.68 -121.5,63.05 -34.43,22.64 -64.18,43.54 -89.81,62.82 -52.13,36.8 -84.05,75.09 -106.21,103.97 -43.72,58.74 -42.88,92.72 -29.13,115.29z"/>
   <path class="fil0" d="M12802.85 10886.11c-8.34,-16.19 -23.28,-31.16 -56.3,-35.72 -32.98,-4.65 -85.17,1.16 -159.46,39.86 -73.68,38.36 -170.29,112.36 -261.44,249.01 -86.95,136.67 -170.3,338.56 -164.8,609.64 4.11,136.41 34.97,273.29 86.85,406 52.6,131.91 125.93,256.5 212.65,367.3 86.11,111.42 185.32,209.25 288.1,293.95 103.36,84.24 209.12,154.87 311.57,214.39 204.89,119.12 392.26,197.94 525.78,253.44 133.77,54.89 214.81,85.53 214.81,85.53 0,0 -70.53,-50.72 -187.42,-134.73 -116.36,-84.41 -279.96,-202.16 -447.91,-350.41 -168.52,-147.65 -335.96,-329.8 -454.22,-533.97 -59.77,-101.42 -106.43,-207.22 -138.65,-311.25 -31.31,-103.51 -48.89,-208.12 -51.48,-300.72 -3.8,-189.37 43.48,-335.51 87.81,-441.31 47.6,-105.24 94.27,-175.23 128.73,-227.68 34.49,-52.64 56.78,-88.78 66.58,-117.33 9.76,-28.84 6.87,-50.33 -1.2,-66z"/>
   <path class="fil0" d="M13288.16 10199.33c16.77,-7.06 31.41,-23.71 31.96,-69.02 0,-11.28 -0.39,-24.67 -2.89,-39.64 -3.25,-14.55 -7.84,-31.12 -14.07,-50 -3.4,-9.58 -6.93,-19.57 -10.67,-30.06 -4.42,-10.28 -10.05,-20.56 -15.86,-31.74 -12.14,-21.91 -24.8,-47.92 -44.26,-72.13 -18.59,-25.12 -39.53,-53.13 -66.96,-79.3 -25.95,-28.27 -57.94,-54.35 -93.89,-82.26 -73,-53.12 -166.59,-105.25 -284.82,-140.96 -117.87,-35.36 -260.99,-55.08 -424.92,-34.44 -20.42,2.86 -41.05,7.32 -62.05,11.25 -21.04,3.85 -42.33,8.16 -63.57,15.09 -21.29,6.42 -42.9,12.98 -64.81,19.6 -20.75,8.37 -41.78,16.86 -63.14,25.5 -84.06,36.93 -169.33,85.17 -248.69,148.67 -158.73,126.8 -290.22,299.95 -374.24,497.41 -42.11,98.73 -73.26,203.24 -91.83,310.77 -18.72,108.14 -23.7,217.16 -17.98,324.08 11.21,214.73 67.73,420.58 147.87,604.45 80.16,184.3 183.11,348.65 293.94,489.39 221.75,281.77 459.9,477.21 629.07,612.94 85.24,67.52 154.74,119.45 202.63,155 48.05,35.27 74.26,54.54 74.26,54.54 0,0 -22.61,-23.38 -64.04,-66.19 -41.35,-42.88 -101.41,-105.29 -174.57,-184.58 -145.01,-158.87 -347.71,-385.01 -518.76,-673.49 -85.41,-143.41 -159.6,-303.77 -211.76,-473.59 -52.32,-169.48 -81.17,-348.77 -74.71,-523.09 5.21,-175.21 46.96,-339.56 119.45,-486.99 71.85,-146.9 173.56,-269.43 284.24,-358.21 55.5,-44.57 113.32,-77.3 169.39,-103.74 14.2,-6.23 28.2,-12.36 42.02,-18.44 13.74,-4.52 27.33,-8.98 40.68,-13.39 13.11,-5.2 26.82,-8.25 40.41,-11.17 13.53,-2.96 26.66,-6.78 39.96,-9.31 107.08,-18.41 206.84,-13.43 291.73,2.17 85.27,15.72 155.86,41.83 214.6,68.22 28.63,14.4 55.83,27.01 78.54,41.83 24.5,12.91 44.15,27.68 63.34,40.43 20.2,11.98 34.88,25.98 50.61,37.06 7.77,5.66 15.16,11.02 22.23,16.19 6.48,5.46 12.65,10.7 18.56,15.68 12.05,9.76 23.38,18.14 34.02,25.31 9.86,7.55 18.21,14.28 26.52,19.55 32.86,21.46 56.25,23.48 72.46,16.61z"/>
   <path class="fil0" d="M11884.38 13881.69c20.78,29.94 65.26,54.83 170.54,29.1 108.02,-20.9 274.68,-96.16 586.22,-187.69 156.68,-42.72 335.73,-84.37 520.61,-107.95 184.58,-24.28 374.17,-30.03 544.55,-19.5 170.65,9.8 319.74,40.28 427.27,63.73 53.35,12.68 95.33,26.13 125,33.82 29.59,8.09 45.78,12.55 45.78,12.55 0,0 -13.85,-9.41 -39.09,-26.53 -25.6,-16.63 -62.15,-43.1 -110.42,-71.94 -97.1,-55.63 -238.16,-131.56 -413.3,-188.24 -174.37,-57.34 -380.89,-99.12 -591.36,-107.6 -210.28,-9.45 -423.25,14.64 -605.3,64.53 -45.12,13.87 -87.61,27.46 -127.57,40.76 -40.21,12.45 -76.12,30.21 -110.64,44.34 -69.25,28.08 -126.2,61.22 -175.5,90.39 -49.91,27.88 -88.52,59.61 -121.5,86.01 -32.63,27.01 -59.04,50.23 -77.79,74.36 -76.89,93.13 -67.57,140.89 -47.5,169.86z"/>
   <path class="fil0" d="M9020.41 13296.86c0,0 -5.88,-7.1 -16.79,-20.3 -10.55,-13.71 -28.02,-30.7 -46.29,-56.75 -38.77,-49.02 -87.46,-124.2 -131.27,-218.28 -89.35,-186.93 -144.02,-464.33 -82.51,-728.33 61.89,-263.92 233.82,-488.36 396.82,-616.32 80.97,-64.92 157.89,-110.75 214.42,-137.49 27.91,-15.24 51.1,-22.75 66.62,-30.36 15.64,-7 24.05,-10.76 24.05,-10.76 0,0 -9,-1.6 -25.69,-4.63 -16.84,-2.14 -42.53,-8.53 -75.41,-9.56 -66.27,-5.59 -164.97,-1.9 -284.31,31.57 -59.71,16.44 -123.01,42.49 -188.79,76.95 -64.14,36.45 -131.72,80.58 -193.81,138.75 -125.48,113.73 -236.44,279.52 -284.69,479.84 -45.55,200.96 -19.56,398.78 42.49,556.32 29.9,79.66 70.89,149.16 112.26,210.28 43.67,60.06 88.87,111.44 135.12,152.66 92.14,82.89 178.96,129.98 240.85,154.33 29.94,13.67 55.79,19.3 71.84,24.85 16.33,4.69 25.09,7.23 25.09,7.23z"/>
   <path class="fil0" d="M9970.27 13216.72c0,0 -6.26,-1.7 -17.79,-4.85 -11.56,-3.5 -28.08,-6.42 -48.85,-13.46 -41.27,-11.81 -98.22,-33.21 -159.38,-64.23 -123.97,-61.38 -258.51,-171.03 -354.55,-302.04 -96.54,-130.66 -161.26,-291.7 -183,-428.29 -11.44,-67.64 -14.94,-128.34 -13.94,-171.29 -0.55,-21.9 1.57,-38.53 1.67,-50.64 0.41,-11.92 0.64,-18.44 0.64,-18.44 0,0 -5.08,3.98 -14.36,11.27 -8.93,7.74 -23.96,18.63 -39.56,35.36 -33.12,32.48 -76.03,86.11 -112.2,164.61 -36.19,78.1 -62.4,182.01 -57.64,301.23 4.33,118.45 43.12,252.7 128.28,369.71 86.42,116.07 203.08,193.03 314.88,232.38 112.41,40.01 219.43,45.86 304.73,34.49 85.73,-11.17 149.7,-36.19 190.56,-58.16 20.59,-9.92 35.43,-21.04 45.51,-27.27 9.7,-6.72 15,-10.38 15,-10.38z"/>
   <path class="fil0" d="M11209.61 12183.23c0,0 14.1,33.53 43.32,93.17 7.49,14.97 15.78,31.55 24.8,49.56 9.57,17.77 20.94,36.33 32.99,56.6 24.51,40.11 51.77,87.23 87.68,134.4 17.96,24.13 36.65,49.21 55.98,75.16 19.92,25.89 42.69,50.78 65.68,77.41 45.54,53.98 99.8,105.73 157.8,160.08 118.32,105.12 261.12,208.25 424.66,291.63 164.25,81.96 332.04,135.53 486.91,168.23 78.18,14.35 152.05,27.24 222.52,31.76 35.11,2.71 68.6,6.24 101.27,6.88 32.37,0.1 63.65,0.22 93.72,0.35 59.28,0.84 113.37,-5.26 160.2,-9.38 23.48,-2.37 45.16,-4.24 65.14,-7.1 19.85,-3.47 38.09,-6.61 54.6,-9.5 65.29,-11.95 100.69,-20.52 100.69,-20.52 0,0 -34.69,-13.94 -96.03,-35.56 -15.36,-5.3 -32.35,-11.18 -50.79,-17.53 -18.43,-7.08 -38.34,-14.71 -59.6,-22.87 -42.5,-16.64 -90.8,-32.5 -142.8,-54.89 -26.15,-10.34 -53.35,-21.11 -81.51,-32.22 -28.24,-11.05 -56.95,-24.67 -86.89,-36.97 -60.19,-23.73 -122.43,-53.89 -188.27,-82.06 -130.53,-60.45 -270.86,-127.47 -416.93,-200.25 -145.3,-74.23 -282.61,-147.24 -408.8,-216.28 -61.76,-36.24 -123.01,-68.39 -177.86,-102.69 -27.69,-16.76 -55.73,-31.77 -81.36,-47.88 -25.69,-16.06 -50.52,-31.58 -74.39,-46.45 -48.88,-28.49 -90.34,-57.94 -128.98,-82.22 -19.18,-12.24 -37.17,-23.74 -53.8,-34.34 -16.1,-11.08 -30.9,-21.23 -44.29,-30.44 -53.86,-36.49 -85.66,-56.08 -85.66,-56.08z"/>
   <path class="fil0" d="M13156.32 11626.43c0,0 33.37,36.71 93.66,95.64 59.73,58.08 145.04,140.98 248.11,241.15 50.87,48.63 106.11,101.46 164.92,157.7 59.42,54.09 120,114.59 185.58,172.95 129.08,120.54 269.92,245.58 423.22,369.49 152.21,125.23 303.03,238.03 447.09,340.23 70.36,52.51 141.82,99.66 206.74,147 66.9,46.29 129.79,89.77 187.67,129.83 118.82,80.77 217.21,147.67 286.1,194.5 69.89,47.22 112.54,72.49 112.54,72.49 0,0 -3.73,-47.98 -17.79,-133.26 -3.83,-21.39 -8.03,-45.09 -12.66,-70.89 -5.33,-25.62 -12.36,-52.83 -19.88,-82.31 -15.61,-58.61 -33.27,-126.51 -60.57,-197.27 -13.14,-35.74 -27.52,-73.1 -43.2,-111.84 -15.81,-38.6 -34.98,-76.95 -54.5,-117.29 -38.36,-81.36 -87.43,-162.78 -141.71,-247.5 -111.58,-166.34 -256.01,-335.44 -434.52,-482.03 -179.51,-145.33 -374.21,-252.84 -559.6,-328.67 -93.91,-36.09 -183.53,-67.8 -270.92,-88.99 -43.45,-11.02 -84.89,-22.07 -125.9,-29.81 -41.08,-7.55 -80.55,-14.13 -118.22,-19.78 -74.8,-12.53 -144.89,-16.16 -205.39,-19.66 -30.42,-1.45 -58.49,-2.86 -84.64,-2.92 -26.21,0.67 -50.26,1.28 -72,1.87 -86.38,3.36 -134.13,9.37 -134.13,9.37z"/>
   <path class="fil0" d="M14078.3 10461.67c0,0 88.8,607.45 473.22,1168.32 384.46,560.91 918.94,862.86 918.94,862.86 0,0 -88.78,-607.45 -473.24,-1168.32 -384.42,-560.89 -918.92,-862.86 -918.92,-862.86z"/>
   <path class="fil0" d="M14322.75 11535.85c4.01,0 8.03,0 12.04,0 47.18,0 92.4,41.5 90.22,90.23 -2.19,48.88 -39.63,90.21 -90.22,90.21 -4.01,0 -8.03,0 -12.04,0 -47.22,0 -92.4,-41.49 -90.23,-90.21 2.19,-48.88 39.65,-90.23 90.23,-90.23l0 0z"/>
   <path class="fil0" d="M14070.1 11571.93c-116.13,0 -116.32,-180.48 0,-180.48 116.11,0 116.31,180.48 0,180.48l0 0z"/>
   <path class="fil0" d="M13745.26 11487.71c-116.13,0 -116.32,-180.46 0,-180.46 116.11,0 116.31,180.46 0,180.46l0 0z"/>
   <path class="fil0" d="M13432.44 11511.76c-116.11,0 -116.3,-180.43 0,-180.43 116.13,0 116.33,180.43 0,180.43l0 0z"/>
   <path class="fil0" d="M12854.95 10224.45c-4.01,0 -8.02,0 -12.04,0 -47.18,0 -92.41,-41.5 -90.22,-90.22 2.18,-48.92 39.63,-90.26 90.22,-90.26 4.02,0 8.03,0 12.04,0 47.19,0 92.41,41.5 90.22,90.26 -2.18,48.88 -39.63,90.22 -90.22,90.22l0 0z"/>
   <path class="fil0" d="M12578.22 10176.33c-116.1,0 -116.3,-180.47 0,-180.47 116.15,0 116.34,180.47 0,180.47l0 0z"/>
   <path class="fil0" d="M12289.48 10260.55c-116.14,0 -116.33,-180.48 0,-180.48 116.11,0 116.31,180.48 0,180.48l0 0z"/>
   <path class="fil0" d="M12072.91 10561.33c-116.1,0 -116.29,-180.47 0,-180.47 116.14,0 116.33,180.47 0,180.47l0 0z"/>
   <path class="fil0" d="M8193.66 10360.5c0,0 9.19,-4.59 26.66,-13.3 17.86,-8.06 41.79,-23.51 76.25,-37.29 66.51,-31.34 167.3,-68.41 296.61,-97.31 129.18,-29.43 289.19,-44.84 467.92,-36.91 178.67,8.25 375.78,42.88 573.79,106.7 401.9,132.45 743.31,353.14 983.43,526.89 120.25,87.21 216.31,162.26 282.31,215.17 66.16,53.11 102.75,82.5 102.75,82.5 0,0 -31.38,-35.1 -89.9,-96.54 -58.52,-61.47 -144.85,-148.36 -257.04,-248.6 -112.12,-100.21 -251.1,-212.62 -415.93,-319.25 -164.48,-106.83 -356.22,-205.72 -567.75,-275.92 -210.15,-67.81 -421.2,-96.75 -610.08,-93.7 -189.11,3.35 -355.55,35.43 -485.86,81.01 -130.62,45.13 -227.49,97.44 -289.38,139.26 -32.21,19.08 -53.79,38.67 -69.94,49.56 -15.65,11.63 -23.84,17.73 -23.84,17.73z"/>
   <path class="fil0" d="M8234.26 10037.65c0,0 10.15,-3.85 29.64,-10.57 19.57,-6.55 47.93,-17.35 84.86,-29.32 74.61,-22.2 182.97,-51.97 319.13,-70.21 271.42,-37.9 654.79,-22.07 1048.04,107.27 393.67,129.6 719.83,327.57 948.06,479.72 114.14,76.66 204.18,142.79 266.7,188.27 62.02,46.22 96.36,71.79 96.36,71.79 0,0 -29.9,-30.71 -83.96,-86.24 -55.3,-54.28 -135.99,-132.52 -242.45,-222.48 -106.48,-89.81 -239.06,-191.2 -397.53,-288.68 -157.86,-98.06 -343.5,-189.65 -549.31,-258.13 -207.29,-66.36 -413.78,-100.12 -602.09,-103.32 -188.31,-4.5 -357.64,17.72 -495.2,51.99 -137.88,34.08 -243.58,79.24 -314.75,112.32 -35.27,17.47 -61.83,32.67 -80.05,42.26 -18.17,9.77 -27.45,15.33 -27.45,15.33z"/>
   <path class="fil0" d="M8552.71 9685.51c0,0 8.99,-1.42 26.04,-4.12 17.03,-3.15 42.24,-6.22 74.65,-9.44 32.44,-3.25 71.91,-8.83 117.81,-10.53 22.9,-1.32 47.37,-2.73 73.33,-4.24 25.84,-0.29 53.18,-0.61 81.89,-0.93 114.53,0.03 250.11,6.64 397.62,29.06 147.49,22.17 307.02,58.2 469.83,111.33 322.75,106.08 592.07,249.23 779.21,360.2 94.17,55.11 167.85,102.93 218.89,135.86 25.69,16.28 45.22,29.38 58.42,38.28 13.3,8.83 20.27,13.46 20.27,13.46 0,0 -6.24,-5.59 -18.15,-16.22 -11.85,-10.7 -29.48,-26.34 -52.96,-45.74 -46.6,-39.15 -114.63,-95.45 -204.18,-159.72 -177.29,-128.86 -443.26,-294.04 -776.2,-403.5 -168.13,-54.89 -334.22,-87.07 -486.74,-102.13 -152.63,-15.35 -291.82,-11.76 -407.9,-1.54 -29,3.01 -56.62,5.87 -82.77,8.6 -26.05,4.12 -50.58,8 -73.54,11.63 -45.87,6.52 -85.03,16.57 -116.99,23.61 -31.98,7 -56.62,13.2 -73.19,18.56 -16.6,4.94 -25.34,7.52 -25.34,7.52z"/>
   <path class="fil0" d="M13476.6 12656.59c0,0 269.75,337.42 702.39,555.22 432.63,217.83 864.36,233.5 864.36,233.5 0,0 -269.76,-337.44 -702.39,-555.22 -432.63,-217.83 -864.36,-233.5 -864.36,-233.5z"/>
   <path class="fil0" d="M14156.67 15580.1c-6.62,-25.15 31.41,-51.23 71.88,-102.81 4.94,-6.43 10.15,-13.14 15.6,-20.2 4.6,-7.75 9.39,-15.84 14.36,-24.28 5.53,-7.61 9.58,-17.15 13.85,-26.8 4.1,-9.72 9.88,-18.4 12.78,-29.67 16.35,-41.39 26.68,-92.75 26.21,-148.35 -0.35,-55.25 -11.7,-115.98 -40.34,-166.67 -7.68,-12.17 -13.85,-25.59 -23.77,-35.87 -4.59,-5.42 -8.54,-11.43 -13.27,-16.73 -5.4,-4.63 -10.59,-9.35 -15.7,-14.23 -8.71,-10.53 -24.35,-17.95 -36.04,-27.71 -14.04,-7.27 -27.24,-16.1 -42.59,-21.88 -117.49,-54.15 -300.27,-27.01 -421.32,74.86 -16.03,11.7 -28.27,26.73 -42.23,40.22 -11.57,15.26 -24.35,29.09 -34.75,47.31 -22.07,34.27 -40.13,72.04 -52.07,112.96 -25.67,81.06 -30.19,172.66 -16.7,262.34 13.75,89.86 46.44,177.61 93.53,253.67 24.73,38.63 52.7,75.51 83.38,110.03 31.34,34.01 65.16,65.78 100.85,95.33 143.88,116.85 320.34,191.84 481.44,233.37 161.37,39.22 317.11,40.44 444.84,24.79 131.33,-15.38 260.57,-49.75 380.28,-103.13 119.96,-52.6 230.09,-125.29 319.73,-215.76 89.93,-90.13 157.67,-199.59 190.91,-319.94 16.9,-59.92 26.11,-122.49 26.18,-185.32 1.34,-15.7 0.48,-31.37 -1.12,-47.05l-3.45 -47.09c-4.62,-31.15 -10.37,-62.37 -17.28,-93.3 -63.88,-247.24 -244.54,-465.8 -470.74,-606 -113.67,-71.37 -236.36,-122.85 -368.82,-155.04 -132.26,-31.95 -269.72,-46.31 -408.7,-47.4 -349.8,-1.51 -700.46,79.1 -1049.84,171.7 -349.96,91.86 -697.16,200.55 -1045.41,311.06 -696.36,221.39 -1398.04,458.75 -2136.04,607.43 -368.72,74.38 -745.34,123.78 -1126.8,139.45 -381.37,13.36 -768.46,-5.56 -1150.6,-80.13 -95.84,-16.16 -190.33,-41.18 -285.18,-63.89 -47.34,-11.81 -93.94,-27.2 -140.9,-40.76 -46.92,-13.93 -93.95,-27.52 -139.84,-45.03l-138.5 -49.91c-45.7,-17.95 -90.67,-38.02 -135.98,-57.07l-67.8 -29.03c-22.49,-10.16 -44.58,-22.04 -66.87,-32.99l-133.23 -67.44c-43.13,-24.68 -85.59,-50.5 -128.35,-75.81l-63.91 -38.28 -61.44 -42.01 -122.21 -84.89 -116.46 -92.53 -57.94 -46.51 -55.02 -50.01 -109.43 -100.59 -102.61 -107.6 -51 -53.99 -47.54 -57.3c-183.88,-216.92 -334.28,-460.4 -436.71,-700.84 -104.8,-239.76 -153.04,-478.05 -168.74,-672.01 -2.84,-47.02 -4.79,-91.05 -5.98,-132.04 -0.26,-41.14 4.43,-79.87 7.13,-115.23 3.31,-35.43 7.03,-67.8 11.17,-97.19 3.7,-29.39 12.85,-55.92 19.15,-79.4 28.04,-94.01 57.14,-140.29 85.14,-143.21 27.98,-2.92 55.12,37.34 79.37,116.26 12.14,39.5 21.75,88.68 39.95,147.07 16.61,58.39 29.19,126.42 55.05,202.37 9.9,32.99 19.72,67.27 29.45,102.69 12.76,34.78 25.96,70.75 39.58,107.91 22.99,74.97 61.98,150.09 94.26,230.35 76.8,156.71 169.68,321.86 285.98,481.59 118,158.34 255.05,311.96 405.55,451.48 150.42,139.93 317.59,260.37 484.47,363.74l111.65 66.28 115.37 58.59 57.65 29.33 60.09 25.98c40.15,17.14 79.84,35.2 120.18,51.87 82.29,29.41 162.71,63.46 246.96,87.62 41.85,12.68 83.03,27.36 125.33,38.64l127.08 33.4c170.36,41.17 343.09,74.93 518.36,95.19 174.76,23.26 351.66,33.89 528.89,38.83 711.15,18.15 1423.76,-97.73 2130.61,-262.5 707.92,-164.53 1412.75,-376.39 2138.55,-545.42 361.43,-82.87 732.42,-167.82 1120.56,-175.82 193.33,-3.18 390.6,14.1 581.99,66.1 192.86,50.65 377.03,143.89 533.09,270.85 67.03,52.06 139.52,122.98 212.02,212.08 71.65,89.54 141.5,201.02 187.75,336.82 46.35,134.99 66.52,295.58 38.42,460.41 -27.44,165.09 -108.82,331.07 -230.64,465.1 -121.31,134.99 -278.2,240.47 -450.52,313.83 -172.64,73.33 -361.72,115.84 -555.78,122.88 -96.99,3.41 -195.37,-2.06 -293.04,-18.56 -48.62,-8.39 -97.92,-19.24 -145.2,-32.48 -46.93,-12.91 -93.28,-28.42 -139.17,-45.51 -182.79,-69.02 -358.12,-173.3 -498.05,-320.44 -69.12,-73.45 -129.18,-157.37 -174.18,-250.33 -44.1,-92.37 -71.89,-190.45 -84.31,-289.83 -24.92,-197.52 19.63,-408.28 140.58,-567.59 62.15,-81.67 140.9,-143.05 224.03,-185.58 83.34,-42.55 171.76,-66.96 259.8,-74.32 87.94,-7.29 176.13,2.96 256.9,31.58 81.11,28.74 152.31,74.9 208.23,134.82 56.76,60.96 92.92,132.36 109.65,200.58 16.95,68.35 21.62,133.84 14.32,193.32 -12.49,119.26 -62.69,214.71 -119.66,277.25 -57.85,63.3 -122.21,90.21 -164.97,97.79 -44.58,4.95 -67.73,-3.24 -71.39,-17.82z"/>
   <path class="fil0" d="M13047.43 14952.7c-116.1,0 -116.3,-180.47 0,-180.47 116.15,0 116.34,180.47 0,180.47l0 0z"/>
   <path class="fil0" d="M12722.6 15085.03c-116.11,0 -116.31,-180.47 0,-180.47 116.13,0 116.33,180.47 0,180.47l0 0z"/>
   <path class="fil0" d="M12409.79 15193.3c-116.13,0 -116.32,-180.44 0,-180.44 116.11,0 116.31,180.44 0,180.44l0 0z"/>
   <path class="fil0" d="M12006.74 15223.4c0,-4.02 0,-8.03 0,-12.05 0,-47.18 41.5,-92.4 90.23,-90.22 48.92,2.19 90.25,39.63 90.25,90.22 0,4.02 0,8.03 0,12.05 0,47.18 -41.5,92.4 -90.25,90.21 -48.88,-2.18 -90.23,-39.63 -90.23,-90.21l0 0z"/>
   <path class="fil0" d="M11760.12 15349.71c-116.15,0 -116.34,-180.46 0,-180.46 116.1,0 116.3,180.46 0,180.46l0 0z"/>
   <path class="fil0" d="M6216.47 11311.06c-25.75,-9.19 -56.53,-13.48 -93.01,-0.15 -36.2,13.41 -79.98,44.06 -124.53,108.04 -45.28,63.59 -92.78,160.71 -127.37,305.41 -34.3,144.21 -54.96,337.43 -24.73,581.66 30.9,243.58 124.1,511.41 272.26,743.02 146.72,232.37 343.18,422.77 534.76,556.67 191.88,135.28 379.1,213.36 512.87,257.1 67.48,21.26 121.37,35.87 159.18,43.52 37.34,8.06 57.78,12.49 57.78,12.49 0,0 -17.12,-11.94 -48.44,-33.72 -31.41,-21 -75.51,-54.37 -128.47,-96.64 -105.22,-85.67 -242.84,-214.16 -367.65,-379.38 -125.42,-164.48 -238.58,-362.94 -314.41,-568.17 -76.76,-204.72 -117.58,-415.35 -141.9,-603.3 -23.22,-188.47 -25.66,-337.25 -28.55,-455.18 -2.82,-117.94 -6.61,-205.78 -16.51,-272.23 -10.72,-66.74 -26.49,-111.67 -48.4,-142.74 -21.68,-31.05 -47.95,-47.53 -72.88,-56.4z"/>
   <path class="fil0" d="M3566.18 14783.02c11.35,7.65 26.38,11.67 45.91,10.38 9.73,-0.64 20.55,-2.6 32.44,-6.01 12.65,-2.79 26.72,-6.81 41.78,-12.36 31.89,-9.48 69.7,-24.22 119.93,-36.07 49.91,-11.25 112.41,-21.59 184.1,-14.97 35.52,3.15 73.2,10.34 109.08,24.74 36.22,14.19 68.85,34.07 100.59,64.04 31.05,29.93 62.21,68.18 83.25,116.74 22.03,47.44 34.88,103.75 32.17,157.29 -0.99,27.37 -5.36,51.55 -16.02,77.28 -2.5,6.45 -4.79,13 -6.81,19.72l-10.28 18.59c-5.04,13.17 -15.51,24.51 -23.48,37.12 -35.39,48.79 -96.9,94.79 -176.32,128.99 -40.7,15.68 -84.85,29.27 -132.32,36.88 -47.32,6.22 -97.17,11.04 -146.4,5.81 -12.62,0.2 -24.35,-3.21 -36.65,-4.53 -12.27,-1.51 -24.61,-3.09 -36.1,-6.65 -11.91,-3.34 -23.26,-4.72 -36.1,-8.99 -12.91,-4.24 -25.92,-8.48 -39.02,-12.78 -51.91,-19.53 -103.88,-45.83 -154.01,-79.34 -100.14,-66.71 -190.94,-161.1 -252.7,-272.87 -62.57,-112.1 -95.23,-235.42 -91.67,-369.17 3.18,-133.09 42.85,-272.16 114.79,-391.61 35.85,-59.74 79.59,-114.57 129.79,-161.56l18.76 -17.79 20.9 -16.18c14.08,-10.64 27.43,-22.36 41.92,-32.67 30.29,-18.69 59.26,-39.89 92.37,-55.14 31.26,-18.38 66.42,-30.36 100.24,-45.33 35.84,-10.72 70.59,-24.85 108.37,-32.14 73.68,-19.37 152.01,-28.11 231.12,-32.02 79.24,-4.83 160.07,1.7 240.53,9.73 80.36,10.85 160.69,25.46 239.19,47.05 78.84,21.81 154.67,46.76 230.79,79.2 76.41,31.03 150.92,67.29 224.25,105.25 146.4,76.83 286.88,163.61 422.61,252.61 271.4,177.94 526.64,359.14 775.68,496.25 247.9,137.92 485.88,230.16 690.35,278.05 102.07,24.95 196.24,35.98 277.95,43.39 82.23,4.83 152.49,4.15 209.38,-0.03 28.33,-2.63 53.48,-4.98 75.22,-7 21.48,-3.5 39.66,-6.45 54.31,-8.83 29.19,-4.89 44.39,-7.42 44.39,-7.42 0,0 -15.42,0.48 -45,1.38 -14.71,0.41 -32.92,0.93 -54.54,1.54 -21.55,-0.83 -46.44,-1.8 -74.54,-2.89 -55.98,-3.21 -124.3,-11.46 -202.57,-26.18 -77.92,-17.28 -166.14,-39.02 -260.38,-74.86 -188.89,-69.76 -402.99,-183.82 -623.7,-341.96 -221.29,-157 -449.14,-359.4 -707.27,-569.69 -129.15,-105.01 -267.45,-211.23 -419.3,-310.61 -76.19,-49.3 -155.3,-97.51 -239.09,-141.06 -82.87,-44.74 -173.57,-84.6 -265.27,-118.7 -92.21,-34.31 -188.3,-61 -286.81,-82.68 -99.12,-18.85 -200.35,-34.98 -304.73,-37.55 -104.04,-3.4 -210.41,0.23 -317.21,19.15 -53.47,6.9 -106.56,22.19 -159.85,35.07 -52.54,17.54 -105.86,33.05 -156.86,57.1 -206.58,85.6 -394.57,240.58 -521.86,428.63 -128.34,187.75 -204.45,406.8 -220.32,632.07 -7.87,112.51 -0.23,226.96 23.73,337.83 23.86,110.8 63.28,215.95 114.22,312.63 101.84,193.71 250.16,352.91 422.45,468.18 86.23,57.66 177.64,103.62 271.39,137.6 23.83,7.58 47.47,15.13 70.95,22.61 23.6,7.26 49.88,12.27 74.48,18.05 24.99,6.2 49.78,9.67 74.38,12.65 24.61,2.8 49.17,7.2 73.3,7.49 193.8,11.98 372.28,-26.37 529.75,-97.22 156.06,-73.26 294.4,-182.85 385.06,-325.33 21.75,-36.13 43.59,-71.11 58.5,-109.74 8.03,-18.92 16.09,-37.61 23.12,-56.44 5.46,-19.4 10.86,-38.64 16.22,-57.71 21.33,-76.12 27.66,-156.22 22.7,-228.2 -9.18,-145.88 -57.1,-270.37 -120.98,-371.16 -63.21,-101.58 -146.14,-179.11 -233.08,-234.94 -87.14,-55.92 -181.76,-87.2 -265.75,-98.35 -84.47,-11.88 -160.11,-5.87 -225.34,7.36 -130.91,26.91 -221.2,82.61 -282.8,134.22 -61.7,52.74 -94.1,104.64 -112.64,143.73 -8.45,20.55 -13.87,37.81 -16.8,52.51 -2.18,15.39 -2.18,27.88 -0.73,38.16 2.98,20.55 11.91,32.28 22.89,39.66z"/>
   <path class="fil0" d="M21440.88 12352.81c-9.22,10.09 -25.08,15.67 -49.49,14.49 -24.32,-1.13 -58.55,-7.61 -105.58,-14.36 -47.18,-6.2 -108.18,-11.31 -187.15,1.16 -78.24,12.68 -177.42,45.28 -280.2,118.03 -50.81,36.39 -101.9,83.09 -144.27,140.65 -42.88,57.01 -75.54,125.23 -87.43,197.3 -13.36,80.55 -12.17,173.31 15.48,270.33 27.24,96.9 75.29,201.16 153.34,299.41 75.8,99.05 178.77,192.48 301.46,265.3 123.97,69.17 273.48,124.04 440.07,144.88 41.18,8.15 84.64,6.78 127.93,10.37 43.46,2.54 88.08,-1.95 133.07,-1.86 89.83,-9.32 182.85,-20.75 275.02,-48.37 93.47,-23.03 184.24,-62.99 274.64,-107.08 42.88,-26.08 89.33,-48.21 129.92,-79.56 20.56,-15.19 43.43,-28.01 62.79,-45.06 19.76,-16.57 39.67,-33.24 59.68,-50.04 154.9,-138.97 273.03,-320.38 335.73,-536.11 64.14,-213.85 71.97,-455.18 21.39,-686.04 -26.82,-114.93 -66.42,-227.5 -120.92,-332.56 -56.79,-103.68 -126.35,-198.68 -209.41,-282.69 -45.13,-39.61 -86.88,-83.74 -137.82,-117.18l-36.58 -27.14c-12.08,-9.25 -24.12,-18.56 -37.78,-25.69l-79.13 -46.86c-108.79,-57.33 -224.44,-107.3 -348.81,-137.05 -246.18,-67.63 -514.53,-74.51 -777.48,-46.18 -263.59,30.35 -522.75,104.29 -764.02,207.57 -243.97,109.05 -475.86,243.3 -695.26,390.98 -219.33,148.13 -427.62,307.11 -628.84,465.07 -401.83,316.68 -779.7,626.81 -1153.84,861.37 -372.38,235.14 -731.52,401.74 -1045.7,490.51 -19.5,5.78 -38.76,11.53 -57.81,17.18 -19.31,4.66 -38.38,9.29 -57.17,13.84 -37.61,8.87 -74.2,17.48 -109.72,25.86 -35.97,6.3 -70.85,12.43 -104.64,18.34 -16.86,2.95 -33.46,5.85 -49.78,8.71 -16.48,1.83 -32.67,3.66 -48.6,5.42 -63.62,7.04 -122.4,14.42 -177.03,14.97 -54.41,2.12 -103.84,5.2 -148.38,2.25 -44.46,-1.68 -83.8,-2.31 -117.72,-4.4 -33.82,-3.73 -62.4,-6.85 -85.47,-9.39 -45.93,-5.07 -69.92,-7.73 -69.92,-7.73 0,0 24.12,0.58 70.37,1.67 23.06,0.57 51.62,1.28 85.44,2.09 33.82,-0.78 72.88,-3.45 116.78,-5.47 43.97,-0.73 92.6,-7.86 145.78,-14.32 53.38,-4.91 110.59,-16.99 172.09,-28.88 15.35,-2.98 31,-6 46.89,-9.12 15.74,-4.08 31.7,-8.22 47.95,-12.45 32.42,-8.39 65.85,-17.07 100.34,-26.02 33.92,-10.89 68.83,-22.13 104.71,-33.66 17.86,-5.88 35.97,-11.82 54.35,-17.83 18.04,-6.96 36.31,-14.03 54.85,-21.17 297.57,-110.03 632.02,-297.56 975.91,-551.53 344.91,-252.93 692.52,-581.17 1076.43,-927.02 192.49,-172.6 395.25,-349.19 615.61,-518.57 220.55,-168.92 460.99,-328.71 723.59,-464.2 268.22,-133.49 558.56,-233.69 863.65,-284.86 304.74,-48.63 625.18,-57.49 941.8,13.35 158.57,31.29 313.95,88.55 462.66,160.21l109.49 59.14c18.56,9.27 35.78,21.03 52.96,32.82l51.75 35.04c70.88,44.26 132.38,101.14 196.14,154.94 123.59,115.33 229.03,249.56 312.95,393.31 81.78,145.14 141.52,299.64 182.35,457.27 78.1,316.01 75.43,646.31 -10.77,953.17 -40.08,154.16 -108.33,300.08 -189.81,435.1 -21.72,33.14 -43.37,66.16 -64.95,99.05 -24.6,30.71 -49.17,61.28 -73.61,91.76 -23.77,31.22 -51.2,58.52 -78.37,85.95 -27.62,26.79 -52.96,56.27 -82.6,80.13 -29.2,24.41 -58.21,48.66 -86.99,72.75 -28.71,24.29 -60.4,43.49 -90.31,65.04 -59.45,44 -123.94,76.6 -185.68,112.15 -127.27,62.64 -255.11,115.6 -384.74,147.07 -128.47,36.1 -257.55,51.72 -382.78,61.32 -63.04,0.09 -125,3.79 -186.19,-0.48 -61.12,-5.4 -121.47,-6.66 -180.27,-18.47 -236.55,-35.72 -450.1,-119.1 -633.34,-232.44 -180.83,-116.97 -322.88,-259.61 -428.62,-414.03 -107.24,-153.08 -175.14,-321.21 -206.91,-486.27 -4.71,-20.4 -7.67,-41.08 -9.66,-61.89 -2.24,-20.68 -4.47,-41.11 -6.65,-61.38 -2.5,-40.82 -2.09,-81.36 -1.79,-120.63 3.78,-39.54 6.1,-78.34 12.36,-115.83 7.97,-37.8 13.77,-73.03 24.38,-110.12 43.58,-151.05 123.97,-267.77 208.99,-353.82 85.4,-86.88 176.78,-146.17 264.14,-187.85 175.78,-82.52 336.25,-95.55 458.71,-77.89 123.46,18.27 207.32,65.23 258.35,107.11 51.23,42.91 73.45,79.72 82.03,105.79 8.49,26.31 4.6,41.56 -4.33,51.33z"/>
   <path class="fil0" d="M23323.22 10566.85c-14.26,23.36 -46.25,40.6 -113.73,38.16 -33.98,-0.67 -75.06,-9.34 -131.26,-15.54 -27.66,-3.95 -58.07,-9.29 -91.45,-16.22 -34.3,-4.76 -72.36,-9.25 -113.4,-16.13 -82.8,-11.88 -182.08,-21.51 -300.53,-26.17 -119.1,-0.49 -257.2,-1.29 -418.34,23.09 -160.69,22.42 -343.66,61.6 -546.59,130.33 -203.01,69.16 -424.89,165.06 -658.28,309.01 -237.16,142.93 -478.37,321.15 -721.86,520.09 -243.65,198.87 -489.45,418.7 -742.41,638.16 -126.25,109.68 -254.72,219.16 -385.61,325.32 -130.65,106.25 -260.47,207.9 -393.67,307.02 -265.33,197.49 -537.75,375.59 -809.89,514.01 -271.49,139.49 -539.45,242.62 -786.15,310.71 -124.46,30.51 -240.79,61.47 -351.95,77.47 -55.37,8.6 -107.82,20.3 -159.31,25.15 -51.25,5.23 -100.33,10.25 -147.07,15.03 -23.28,2.35 -45.99,4.62 -68.09,6.84 -22.22,0.83 -43.87,1.64 -64.88,2.44 -41.88,1.35 -81.29,2.61 -118.09,3.79 -73.32,4.14 -136.34,0.23 -187.51,-1.66 -102.03,-4.08 -157.7,-6.3 -157.7,-6.3 0,0 55.34,-5.98 156.77,-16.89 50.56,-5.47 112.58,-10.51 184.04,-24.8 35.68,-6.2 73.93,-12.85 114.59,-19.91 20.27,-3.6 41.12,-7.3 62.57,-11.08 21.2,-5.18 42.94,-10.45 65.29,-15.87 44.49,-10.76 91.19,-22.04 139.98,-33.83 48.78,-11.27 98.15,-29.51 149.99,-44.73 104.12,-29.23 211.82,-73.69 325.77,-117.33 225.86,-94.42 465.52,-222.19 704.96,-382.01 240.21,-158.95 477.41,-353.14 712.28,-566.5 117.04,-106.31 236.17,-218.89 352.82,-332.13 116.75,-113.06 232.76,-229.68 349.42,-347.68 233.17,-235.52 469.3,-475.64 717.35,-697.89 247.79,-222.07 508.11,-426.53 777.81,-589.21 270.56,-166.72 537.62,-277.01 780.72,-348.83 243.97,-71.91 467.35,-104.77 664.3,-113.25 197.04,-10.44 368.29,12.01 511.35,38.54 143.31,30.8 259.28,70.72 351.11,113.67 45.7,22.45 86.27,42.68 121.5,63.05 34.44,22.64 64.17,43.54 89.81,62.82 52.12,36.8 84.05,75.09 106.21,103.97 43.71,58.74 42.88,92.72 29.13,115.29z"/>
   <path class="fil0" d="M18224.8 10886.11c8.35,-16.19 23.29,-31.16 56.3,-35.72 32.99,-4.65 85.18,1.16 159.47,39.86 73.68,38.36 170.29,112.36 261.44,249.01 86.95,136.67 170.29,338.56 164.8,609.64 -4.11,136.41 -34.98,273.29 -86.85,406 -52.61,131.91 -125.94,256.5 -212.65,367.3 -86.11,111.42 -185.32,209.25 -288.1,293.95 -103.35,84.24 -209.12,154.87 -311.58,214.39 -204.87,119.12 -392.25,197.94 -525.77,253.44 -133.77,54.89 -214.84,85.53 -214.84,85.53 0,0 70.57,-50.72 187.44,-134.73 116.36,-84.41 279.98,-202.16 447.92,-350.41 168.53,-147.65 335.95,-329.8 454.22,-533.97 59.77,-101.42 106.44,-207.22 138.65,-311.25 31.32,-103.51 48.88,-208.12 51.48,-300.72 3.79,-189.37 -43.49,-335.51 -87.81,-441.31 -47.59,-105.24 -94.26,-175.23 -128.72,-227.68 -34.47,-52.64 -56.79,-88.78 -66.58,-117.33 -9.77,-28.84 -6.88,-50.33 1.18,-66z"/>
   <path class="fil0" d="M17739.49 10199.33c-16.76,-7.06 -31.41,-23.71 -31.95,-69.02 0,-11.28 0.39,-24.67 2.89,-39.64 3.24,-14.55 7.84,-31.12 14.07,-50 3.4,-9.58 6.94,-19.57 10.66,-30.06 4.43,-10.28 10.05,-20.56 15.87,-31.74 12.14,-21.91 24.79,-47.92 44.26,-72.13 18.6,-25.12 39.54,-53.13 66.97,-79.3 25.94,-28.27 57.94,-54.35 93.87,-82.26 73.01,-53.12 166.6,-105.25 284.86,-140.96 117.87,-35.36 260.96,-55.08 424.89,-34.44 20.43,2.86 41.05,7.32 62.08,11.25 21.01,3.85 42.3,8.16 63.53,15.09 21.3,6.42 42.91,12.98 64.81,19.6 20.75,8.37 41.79,16.86 63.15,25.5 84.05,36.93 169.32,85.17 248.7,148.67 158.72,126.8 290.21,299.95 374.23,497.41 42.11,98.73 73.26,203.24 91.83,310.77 18.72,108.14 23.7,217.16 17.99,324.08 -11.22,214.73 -67.74,420.58 -147.88,604.45 -80.17,184.3 -183.1,348.65 -293.94,489.39 -221.74,281.77 -459.9,477.21 -629.06,612.94 -85.25,67.52 -154.75,119.45 -202.64,155 -48.05,35.27 -74.25,54.54 -74.25,54.54 0,0 22.6,-23.38 64.04,-66.19 41.33,-42.88 101.39,-105.29 174.55,-184.58 145.02,-158.87 347.72,-385.01 518.78,-673.49 85.4,-143.41 159.6,-303.77 211.76,-473.59 52.31,-169.48 81.15,-348.77 74.7,-523.09 -5.2,-175.21 -46.95,-339.56 -119.44,-486.99 -71.85,-146.9 -173.58,-269.43 -284.25,-358.21 -55.5,-44.57 -113.31,-77.3 -169.39,-103.74 -14.2,-6.23 -28.2,-12.36 -42.01,-18.44 -13.75,-4.52 -27.33,-8.98 -40.7,-13.39 -13.1,-5.2 -26.82,-8.25 -40.4,-11.17 -13.52,-2.96 -26.66,-6.78 -39.95,-9.31 -107.09,-18.41 -206.84,-13.43 -291.73,2.17 -85.27,15.72 -155.87,41.83 -214.62,68.22 -28.61,14.4 -55.82,27.01 -78.52,41.83 -24.51,12.91 -44.17,27.68 -63.34,40.43 -20.21,11.98 -34.88,25.98 -50.62,37.06 -7.77,5.66 -15.16,11.02 -22.23,16.19 -6.49,5.46 -12.65,10.7 -18.56,15.68 -12.05,9.76 -23.38,18.14 -33.98,25.31 -9.89,7.55 -18.24,14.28 -26.56,19.55 -32.86,21.46 -56.24,23.48 -72.47,16.61z"/>
   <path class="fil0" d="M19143.28 13881.69c-20.77,29.94 -65.26,54.83 -170.54,29.1 -108.01,-20.9 -274.68,-96.16 -586.22,-187.69 -156.68,-42.72 -335.73,-84.37 -520.6,-107.95 -184.58,-24.28 -374.18,-30.03 -544.57,-19.5 -170.64,9.8 -319.73,40.28 -427.23,63.73 -53.38,12.68 -95.36,26.13 -125.04,33.82 -29.54,8.09 -45.77,12.55 -45.77,12.55 0,0 13.85,-9.41 39.09,-26.53 25.6,-16.63 62.15,-43.1 110.43,-71.94 97.08,-55.63 238.15,-131.56 413.29,-188.24 174.37,-57.34 380.89,-99.12 591.36,-107.6 210.27,-9.45 423.25,14.64 605.29,64.53 45.13,13.87 87.62,27.46 127.58,40.76 40.21,12.45 76.11,30.21 110.65,44.34 69.24,28.08 126.18,61.22 175.49,90.39 49.91,27.88 88.51,59.61 121.5,86.01 32.63,27.01 59.03,50.23 77.79,74.36 76.92,93.13 67.58,140.89 47.5,169.86z"/>
   <path class="fil0" d="M22007.25 13296.86c0,0 5.88,-7.1 16.8,-20.3 10.53,-13.71 28,-30.7 46.28,-56.75 38.77,-49.02 87.46,-124.2 131.27,-218.28 89.38,-186.93 144.01,-464.33 82.54,-728.33 -61.93,-263.92 -233.86,-488.36 -396.85,-616.32 -80.97,-64.92 -157.9,-110.75 -214.43,-137.49 -27.9,-15.24 -51.09,-22.75 -66.6,-30.36 -15.64,-7 -24.07,-10.76 -24.07,-10.76 0,0 9,-1.6 25.71,-4.63 16.82,-2.14 42.51,-8.53 75.41,-9.56 66.26,-5.59 164.95,-1.9 284.31,31.57 59.7,16.44 123.01,42.49 188.78,76.95 64.14,36.45 131.72,80.58 193.81,138.75 125.48,113.73 236.45,279.52 284.69,479.84 45.54,200.96 19.56,398.78 -42.49,556.32 -29.91,79.66 -70.89,149.16 -112.26,210.28 -43.68,60.06 -88.86,111.44 -135.11,152.66 -92.16,82.89 -178.97,129.98 -240.86,154.33 -29.93,13.67 -55.79,19.3 -71.85,24.85 -16.28,4.69 -25.08,7.23 -25.08,7.23z"/>
   <path class="fil0" d="M21057.38 13216.72c0,0 6.27,-1.7 17.8,-4.85 11.57,-3.5 28.07,-6.42 48.86,-13.46 41.27,-11.81 98.22,-33.21 159.36,-64.23 124.01,-61.38 258.53,-171.03 354.56,-302.04 96.54,-130.66 161.26,-291.7 183.01,-428.29 11.43,-67.64 14.93,-128.34 13.93,-171.29 0.55,-21.9 -1.57,-38.53 -1.67,-50.64 -0.41,-11.92 -0.64,-18.44 -0.64,-18.44 0,0 5.07,3.98 14.36,11.27 8.93,7.74 23.96,18.63 39.57,35.36 33.11,32.48 76.02,86.11 112.19,164.61 36.19,78.1 62.4,182.01 57.65,301.23 -4.34,118.45 -43.14,252.7 -128.28,369.71 -86.4,116.07 -203.08,193.03 -314.88,232.38 -112.43,40.01 -219.44,45.86 -304.74,34.49 -85.73,-11.17 -149.71,-36.19 -190.53,-58.16 -20.61,-9.92 -35.45,-21.04 -45.51,-27.27 -9.73,-6.72 -15.04,-10.38 -15.04,-10.38z"/>
   <path class="fil0" d="M19818.05 12183.23c0,0 -14.1,33.53 -43.33,93.17 -7.48,14.97 -15.77,31.55 -24.79,49.56 -9.58,17.77 -20.94,36.33 -32.98,56.6 -24.51,40.11 -51.78,87.23 -87.69,134.4 -17.95,24.13 -36.64,49.21 -55.98,75.16 -19.91,25.89 -42.65,50.78 -65.68,77.41 -45.55,53.98 -99.79,105.73 -157.77,160.08 -118.35,105.12 -261.15,208.25 -424.7,291.63 -164.25,81.96 -332.03,135.53 -486.91,168.23 -78.17,14.35 -152.01,27.24 -222.51,31.76 -35.1,2.71 -68.61,6.24 -101.26,6.88 -32.38,0.1 -63.66,0.22 -93.72,0.35 -59.3,0.84 -113.38,-5.26 -160.21,-9.38 -23.48,-2.37 -45.16,-4.24 -65.13,-7.1 -19.85,-3.47 -38.1,-6.61 -54.6,-9.5 -65.3,-11.95 -100.7,-20.52 -100.7,-20.52 0,0 34.69,-13.94 96.04,-35.56 15.35,-5.3 32.34,-11.18 50.77,-17.53 18.44,-7.08 38.36,-14.71 59.62,-22.87 42.49,-16.64 90.79,-32.5 142.8,-54.89 26.14,-10.34 53.34,-21.11 81.51,-32.22 28.23,-11.05 56.95,-24.67 86.88,-36.97 60.19,-23.73 122.44,-53.89 188.27,-82.06 130.53,-60.45 270.85,-127.47 416.93,-200.25 145.3,-74.23 282.6,-147.24 408.8,-216.28 61.76,-36.24 123.01,-68.39 177.87,-102.69 27.68,-16.76 55.72,-31.77 81.35,-47.88 25.7,-16.06 50.52,-31.58 74.39,-46.45 48.88,-28.49 90.35,-57.94 128.99,-82.22 19.17,-12.24 37.15,-23.74 53.79,-34.34 16.09,-11.08 30.89,-21.23 44.3,-30.44 53.86,-36.49 85.65,-56.08 85.65,-56.08z"/>
   <path class="fil0" d="M17871.34 11626.43c0,0 -33.36,36.71 -93.65,95.64 -59.75,58.08 -145.04,140.98 -248.11,241.15 -50.88,48.63 -106.12,101.46 -164.93,157.7 -59.42,54.09 -119.99,114.59 -185.58,172.95 -129.08,120.54 -269.92,245.58 -423.22,369.49 -152.2,125.23 -303.03,238.03 -447.08,340.23 -70.37,52.51 -141.84,99.66 -206.74,147 -66.91,46.29 -129.8,89.77 -187.67,129.83 -118.84,80.77 -217.21,147.67 -286.1,194.5 -69.9,47.22 -112.55,72.49 -112.55,72.49 0,0 3.72,-47.98 17.8,-133.26 3.81,-21.39 8.03,-45.09 12.65,-70.89 5.33,-25.62 12.36,-52.83 19.88,-82.31 15.61,-58.61 33.27,-126.51 60.58,-197.27 13.12,-35.74 27.52,-73.1 43.19,-111.84 15.8,-38.6 34.98,-76.95 54.5,-117.29 38.35,-81.36 87.43,-162.78 141.71,-247.5 111.58,-166.34 256.02,-335.44 434.53,-482.03 179.51,-145.33 374.2,-252.84 559.58,-328.67 93.92,-36.09 183.53,-67.8 270.92,-88.99 43.46,-11.02 84.89,-22.07 125.91,-29.81 41.07,-7.55 80.55,-14.13 118.22,-19.78 74.81,-12.53 144.89,-16.16 205.4,-19.66 30.42,-1.45 58.48,-2.86 84.63,-2.92 26.2,0.67 50.27,1.28 72.01,1.87 86.36,3.36 134.12,9.37 134.12,9.37z"/>
   <path class="fil0" d="M16949.37 10461.67c0,0 -88.82,607.45 -473.24,1168.32 -384.45,560.91 -918.93,862.86 -918.93,862.86 0,0 88.78,-607.45 473.23,-1168.32 384.46,-560.89 918.94,-862.86 918.94,-862.86z"/>
   <path class="fil0" d="M15513.81 9836.23c254.99,371.13 183.62,625.44 183.62,625.44 0,0 67.48,-159.47 337.37,-159.47 269.92,0 393.61,351.15 393.61,351.15 -663.5,198.11 -914.6,823.93 -914.6,823.93 0,0 -251.07,-625.82 -914.55,-823.93 0,0 123.72,-351.15 393.59,-351.15 269.89,0 337.37,159.47 337.37,159.47 0,0 -71.35,-254.31 183.59,-625.44z"/>
   <path class="fil0" d="M16704.91 11535.85c-4.01,0 -8.03,0 -12.01,0 -47.22,0 -92.44,41.5 -90.25,90.23 2.18,48.88 39.66,90.21 90.25,90.21 3.98,0 8,0 12.01,0 47.22,0 92.4,-41.49 90.26,-90.21 -2.23,-48.88 -39.67,-90.23 -90.26,-90.23l0 0z"/>
   <path class="fil0" d="M16957.59 11571.93c116.1,0 116.3,-180.48 0,-180.48 -116.15,0 -116.34,180.48 0,180.48l0 0z"/>
   <path class="fil0" d="M17282.39 11487.71c116.15,0 116.34,-180.46 0,-180.46 -116.1,0 -116.3,180.46 0,180.46l0 0z"/>
   <path class="fil0" d="M17595.23 11511.76c116.1,0 116.3,-180.43 0,-180.43 -116.15,0 -116.34,180.43 0,180.43l0 0z"/>
   <path class="fil0" d="M18172.71 10224.45c4.01,0 8.03,0 12.04,0 47.18,0 92.4,-41.5 90.22,-90.22 -2.18,-48.92 -39.64,-90.26 -90.22,-90.26 -4.01,0 -8.03,0 -12.04,0 -47.18,0 -92.4,41.5 -90.22,90.26 2.18,48.88 39.63,90.22 90.22,90.22l0 0z"/>
   <path class="fil0" d="M18449.43 10176.33c116.11,0 116.31,-180.47 0,-180.47 -116.13,0 -116.32,180.47 0,180.47l0 0z"/>
   <path class="fil0" d="M18738.18 10260.55c116.14,0 116.33,-180.48 0,-180.48 -116.11,0 -116.3,180.48 0,180.48l0 0z"/>
   <path class="fil0" d="M18954.75 10561.33c116.11,0 116.3,-180.47 0,-180.47 -116.14,0 -116.34,180.47 0,180.47l0 0z"/>
   <path class="fil0" d="M22834 10360.5c0,0 -9.18,-4.59 -26.66,-13.3 -17.86,-8.06 -41.78,-23.51 -76.24,-37.29 -66.53,-31.34 -167.31,-68.41 -296.62,-97.31 -129.17,-29.43 -289.19,-44.84 -467.93,-36.91 -178.67,8.25 -375.78,42.88 -573.78,106.7 -401.9,132.45 -743.31,353.14 -983.42,526.89 -120.25,87.21 -216.32,162.26 -282.33,215.17 -66.16,53.11 -102.74,82.5 -102.74,82.5 0,0 31.38,-35.1 89.9,-96.54 58.52,-61.47 144.86,-148.36 257.04,-248.6 112.13,-100.21 251.1,-212.62 415.93,-319.25 164.48,-106.83 356.22,-205.72 567.75,-275.92 210.15,-67.81 421.2,-96.75 610.08,-93.7 189.11,3.35 355.55,35.43 485.85,81.01 130.63,45.13 227.49,97.44 289.38,139.26 32.22,19.08 53.8,38.67 69.96,49.56 15.64,11.63 23.83,17.73 23.83,17.73z"/>
   <path class="fil0" d="M22793.4 10037.65c0,0 -10.14,-3.85 -29.65,-10.57 -19.55,-6.55 -47.88,-17.35 -84.85,-29.32 -74.61,-22.2 -182.98,-51.97 -319.12,-70.21 -271.43,-37.9 -654.8,-22.07 -1048.05,107.27 -393.63,129.6 -719.83,327.57 -948.06,479.72 -114.15,76.66 -204.17,142.79 -266.71,188.27 -62.02,46.22 -96.35,71.79 -96.35,71.79 0,0 29.9,-30.71 83.96,-86.24 55.3,-54.28 135.98,-132.52 242.46,-222.48 106.46,-89.81 239.05,-191.2 397.52,-288.68 157.86,-98.06 343.51,-189.65 549.32,-258.13 207.29,-66.36 413.77,-100.12 602.08,-103.32 188.34,-4.5 357.63,17.72 495.2,51.99 137.87,34.08 243.58,79.24 314.75,112.32 35.26,17.47 61.83,32.67 80.04,42.26 18.18,9.77 27.46,15.33 27.46,15.33z"/>
   <path class="fil0" d="M22474.95 9685.51c0,0 -8.99,-1.42 -26.05,-4.12 -17.02,-3.15 -42.24,-6.22 -74.64,-9.44 -32.44,-3.25 -71.91,-8.83 -117.81,-10.53 -22.89,-1.32 -47.37,-2.73 -73.32,-4.24 -25.86,-0.29 -53.19,-0.61 -81.91,-0.93 -114.53,0.03 -250.1,6.64 -397.62,29.06 -147.48,22.17 -307.02,58.2 -469.82,111.33 -322.76,106.08 -592.06,249.23 -779.21,360.2 -94.18,55.11 -167.86,102.93 -218.89,135.86 -25.69,16.28 -45.22,29.38 -58.42,38.28 -13.3,8.83 -20.27,13.46 -20.27,13.46 0,0 6.23,-5.59 18.15,-16.22 11.85,-10.7 29.48,-26.34 52.96,-45.74 46.6,-39.15 114.63,-95.45 204.17,-159.72 177.3,-128.86 443.27,-294.04 776.2,-403.5 168.14,-54.89 334.22,-87.07 486.76,-102.13 152.62,-15.35 291.85,-11.76 407.89,-1.54 29,3.01 56.63,5.87 82.76,8.6 26.06,4.12 50.6,8 73.56,11.63 45.87,6.52 85.05,16.57 116.97,23.61 31.99,7 56.63,13.2 73.2,18.56 16.61,4.94 25.34,7.52 25.34,7.52z"/>
   <path class="fil0" d="M17551.06 12656.59c0,0 -269.76,337.42 -702.39,555.22 -432.63,217.83 -864.36,233.5 -864.36,233.5 0,0 269.73,-337.44 702.39,-555.22 432.63,-217.83 864.36,-233.5 864.36,-233.5z"/>
   <path class="fil0" d="M16871 15580.1c6.61,-25.15 -31.41,-51.23 -71.86,-102.81 -4.98,-6.43 -10.17,-13.14 -15.64,-20.2 -4.56,-7.75 -9.34,-15.84 -14.35,-24.28 -5.53,-7.61 -9.57,-17.15 -13.84,-26.8 -4.12,-9.72 -9.9,-18.4 -12.79,-29.67 -16.35,-41.39 -26.69,-92.75 -26.21,-148.35 0.36,-55.25 11.69,-115.98 40.34,-166.67 7.68,-12.17 13.84,-25.59 23.77,-35.87 4.59,-5.42 8.55,-11.43 13.26,-16.73 5.4,-4.63 10.61,-9.35 15.72,-14.23 8.7,-10.53 24.34,-17.95 36.03,-27.71 14.03,-7.27 27.23,-16.1 42.59,-21.88 117.48,-54.15 300.27,-27.01 421.32,74.86 16.03,11.7 28.26,26.73 42.24,40.22 11.56,15.26 24.34,29.09 34.75,47.31 22.07,34.27 40.11,72.04 52.07,112.96 25.65,81.06 30.19,172.66 16.69,262.34 -13.74,89.86 -46.44,177.61 -93.53,253.67 -24.72,38.63 -52.7,75.51 -83.37,110.03 -31.35,34.01 -65.17,65.78 -100.85,95.33 -143.9,116.85 -320.35,191.84 -481.46,233.37 -161.35,39.22 -317.09,40.44 -444.83,24.79 -131.33,-15.38 -260.57,-49.75 -380.27,-103.13 -119.96,-52.6 -230.1,-125.29 -319.74,-215.76 -89.93,-90.13 -157.67,-199.59 -190.91,-319.94 -16.9,-59.92 -26.11,-122.49 -26.18,-185.32 -1.35,-15.7 -0.47,-31.37 1.13,-47.05l3.43 -47.09c4.62,-31.15 10.38,-62.37 17.28,-93.3 63.88,-247.24 244.55,-465.8 470.76,-606 113.66,-71.37 236.35,-122.85 368.8,-155.04 132.27,-31.95 269.74,-46.31 408.71,-47.4 349.79,-1.51 700.47,79.1 1049.87,171.7 349.94,91.86 697.13,200.55 1045.39,311.06 696.34,221.39 1398.03,458.75 2136.04,607.43 368.71,74.38 745.33,123.78 1126.79,139.45 381.38,13.36 768.46,-5.56 1150.6,-80.13 95.84,-16.16 190.34,-41.18 285.21,-63.89 47.34,-11.81 93.91,-27.2 140.87,-40.76 46.93,-13.93 93.94,-27.52 139.85,-45.03l138.48 -49.91c45.71,-17.95 90.67,-38.02 135.99,-57.07l67.8 -29.03c22.49,-10.16 44.59,-22.04 66.87,-32.99l133.23 -67.44c43.13,-24.68 85.6,-50.5 128.34,-75.81l63.91 -38.28 61.45 -42.01 122.21 -84.89 116.46 -92.53 57.94 -46.51 55.02 -50.01 109.42 -100.59 102.63 -107.6 51 -53.99 47.53 -57.3c183.87,-216.92 334.29,-460.4 436.71,-700.84 104.8,-239.76 153.04,-478.05 168.75,-672.01 2.82,-47.02 4.79,-91.05 5.97,-132.04 0.26,-41.14 -4.43,-79.87 -7.13,-115.23 -3.3,-35.43 -7.04,-67.8 -11.18,-97.19 -3.69,-29.39 -12.84,-55.92 -19.14,-79.4 -28.04,-94.01 -57.13,-140.29 -85.14,-143.21 -27.98,-2.92 -55.12,37.34 -79.37,116.26 -12.14,39.5 -21.74,88.68 -39.95,147.07 -16.61,58.39 -29.2,126.42 -55.05,202.37 -9.89,32.99 -19.72,67.27 -29.46,102.69 -12.74,34.78 -25.94,70.75 -39.56,107.91 -22.97,74.97 -62,150.09 -94.27,230.35 -76.8,156.71 -169.68,321.86 -285.98,481.59 -118,158.34 -255.05,311.96 -405.56,451.48 -150.4,139.93 -317.58,260.37 -484.47,363.74l-111.63 66.28 -115.37 58.59 -57.65 29.33 -60.1 25.98c-40.14,17.14 -79.85,35.2 -120.15,51.87 -82.32,29.41 -162.74,63.46 -246.99,87.62 -41.85,12.68 -83.02,27.36 -125.32,38.64l-127.1 33.4c-170.35,41.17 -343.08,74.93 -518.35,95.19 -174.75,23.26 -351.66,33.89 -528.88,38.83 -711.16,18.15 -1423.77,-97.73 -2130.62,-262.5 -707.91,-164.53 -1412.74,-376.39 -2138.55,-545.42 -361.42,-82.87 -732.42,-167.82 -1120.53,-175.82 -193.35,-3.18 -390.62,14.1 -582.02,66.1 -192.86,50.65 -377.03,143.89 -533.09,270.85 -67.04,52.06 -139.52,122.98 -212.01,212.08 -71.63,89.54 -141.51,201.02 -187.76,336.82 -46.35,134.99 -66.52,295.58 -38.42,460.41 27.43,165.09 108.82,331.07 230.64,465.1 121.31,134.99 278.21,240.47 450.53,313.83 172.62,73.33 361.7,115.84 555.76,122.88 97,3.41 195.38,-2.06 293.05,-18.56 48.63,-8.39 97.93,-19.24 145.21,-32.48 46.92,-12.91 93.26,-28.42 139.16,-45.51 182.78,-69.02 358.15,-173.3 498.06,-320.44 69.12,-73.45 129.18,-157.37 174.17,-250.33 44.1,-92.37 71.88,-190.45 84.31,-289.83 24.93,-197.52 -19.62,-408.28 -140.58,-567.59 -62.15,-81.67 -140.9,-143.05 -224.02,-185.58 -83.34,-42.55 -171.77,-66.96 -259.8,-74.32 -87.94,-7.29 -176.14,2.96 -256.92,31.58 -81.09,28.74 -152.31,74.9 -208.22,134.82 -56.75,60.96 -92.91,132.36 -109.65,200.58 -16.96,68.35 -21.61,133.84 -14.33,193.32 12.5,119.26 62.7,214.71 119.68,277.25 57.84,63.3 122.21,90.21 164.96,97.79 44.57,4.95 67.74,-3.24 71.4,-17.82z"/>
   <path class="fil0" d="M17980.22 14952.7c116.11,0 116.3,-180.47 0,-180.47 -116.13,0 -116.32,180.47 0,180.47l0 0z"/>
   <path class="fil0" d="M18305.06 15085.03c116.11,0 116.3,-180.47 0,-180.47 -116.13,0 -116.33,180.47 0,180.47l0 0z"/>
   <path class="fil0" d="M18617.86 15193.3c116.15,0 116.34,-180.44 0,-180.44 -116.11,0 -116.3,180.44 0,180.44l0 0z"/>
   <path class="fil0" d="M19020.91 15223.4c0,-4.02 0,-8.03 0,-12.05 0,-47.18 -41.5,-92.4 -90.21,-90.22 -48.92,2.19 -90.26,39.63 -90.26,90.22 0,4.02 0,8.03 0,12.05 0,47.18 41.5,92.4 90.26,90.21 48.88,-2.18 90.21,-39.63 90.21,-90.21l0 0z"/>
   <path class="fil0" d="M19267.55 15349.71c116.13,0 116.33,-180.46 0,-180.46 -116.11,0 -116.3,180.46 0,180.46l0 0z"/>
   <path class="fil0" d="M24811.19 11311.06c25.76,-9.19 56.52,-13.48 93.01,-0.15 36.2,13.41 79.97,44.06 124.56,108.04 45.25,63.59 92.75,160.71 127.34,305.41 34.3,144.21 54.95,337.43 24.74,581.66 -30.9,243.58 -124.11,511.41 -272.27,743.02 -146.72,232.37 -343.19,422.77 -534.77,556.67 -191.87,135.28 -379.09,213.36 -512.86,257.1 -67.48,21.26 -121.37,35.87 -159.18,43.52 -37.35,8.06 -57.77,12.49 -57.77,12.49 0,0 17.11,-11.94 48.42,-33.72 31.42,-21 75.52,-54.37 128.48,-96.64 105.22,-85.67 242.84,-214.16 367.66,-379.38 125.42,-164.48 238.57,-362.94 314.4,-568.17 76.76,-204.72 117.59,-415.35 141.9,-603.3 23.22,-188.47 25.66,-337.25 28.55,-455.18 2.83,-117.94 6.62,-205.78 16.51,-272.23 10.73,-66.74 26.5,-111.67 48.4,-142.74 21.68,-31.05 47.95,-47.53 72.88,-56.4z"/>
   <path class="fil0" d="M27461.47 14783.02c-11.33,7.65 -26.37,11.67 -45.89,10.38 -9.74,-0.64 -20.56,-2.6 -32.44,-6.01 -12.66,-2.79 -26.72,-6.81 -41.79,-12.36 -31.89,-9.48 -69.7,-24.22 -119.92,-36.07 -49.92,-11.25 -112.42,-21.59 -184.11,-14.97 -35.52,3.15 -73.19,10.34 -109.07,24.74 -36.23,14.19 -68.87,34.07 -100.6,64.04 -31.05,29.93 -62.21,68.18 -83.25,116.74 -22.03,47.44 -34.87,103.75 -32.18,157.29 1,27.37 5.36,51.55 16.03,77.28 2.51,6.45 4.78,13 6.8,19.72l10.32 18.59c5.01,13.17 15.48,24.51 23.44,37.12 35.4,48.79 96.9,94.79 176.34,128.99 40.68,15.68 84.88,29.27 132.32,36.88 47.3,6.22 97.16,11.04 146.4,5.81 12.61,0.2 24.34,-3.21 36.64,-4.53 12.26,-1.51 24.6,-3.09 36.1,-6.65 11.92,-3.34 23.25,-4.72 36.1,-8.99 12.91,-4.24 25.92,-8.48 39.03,-12.78 51.89,-19.53 103.86,-45.83 154,-79.34 100.15,-66.71 190.94,-161.1 252.71,-272.87 62.56,-112.1 95.23,-235.42 91.66,-369.17 -3.18,-133.09 -42.85,-272.16 -114.79,-391.61 -35.84,-59.74 -79.59,-114.57 -129.79,-161.56l-18.75 -17.79 -20.92 -16.18c-14.06,-10.64 -27.42,-22.36 -41.91,-32.67 -30.28,-18.69 -59.25,-39.89 -92.37,-55.14 -31.25,-18.38 -66.42,-30.36 -100.24,-45.33 -35.85,-10.72 -70.6,-24.85 -108.36,-32.14 -73.69,-19.37 -152.02,-28.11 -231.13,-32.02 -79.23,-4.83 -160.08,1.7 -240.53,9.73 -80.33,10.85 -160.69,25.46 -239.18,47.05 -78.86,21.81 -154.69,46.76 -230.81,79.2 -76.4,31.03 -150.92,67.29 -224.25,105.25 -146.38,76.83 -286.87,163.61 -422.6,252.61 -271.4,177.94 -526.61,359.14 -775.65,496.25 -247.92,137.92 -485.92,230.16 -690.38,278.05 -102.07,24.95 -196.24,35.98 -277.95,43.39 -82.22,4.83 -152.5,4.15 -209.38,-0.03 -28.33,-2.63 -53.47,-4.98 -75.19,-7 -21.52,-3.5 -39.69,-6.45 -54.34,-8.83 -29.16,-4.89 -44.38,-7.42 -44.38,-7.42 0,0 15.41,0.48 44.99,1.38 14.71,0.41 32.92,0.93 54.54,1.54 21.55,-0.83 46.44,-1.8 74.54,-2.89 55.98,-3.21 124.3,-11.46 202.57,-26.18 77.92,-17.28 166.15,-39.02 260.38,-74.86 188.89,-69.76 402.99,-183.82 623.7,-341.96 221.3,-157 449.14,-359.4 707.28,-569.69 129.14,-105.01 267.44,-211.23 419.3,-310.61 76.18,-49.3 155.29,-97.51 239.09,-141.06 82.86,-44.74 173.56,-84.6 265.25,-118.7 92.22,-34.31 188.32,-61 286.82,-82.68 99.11,-18.85 200.35,-34.98 304.74,-37.55 104.03,-3.4 210.41,0.23 317.19,19.15 53.48,6.9 106.58,22.19 159.85,35.07 52.55,17.54 105.87,33.05 156.87,57.1 206.58,85.6 394.57,240.58 521.85,428.63 128.35,187.75 204.47,406.8 220.34,632.07 7.86,112.51 0.21,226.96 -23.74,337.83 -23.86,110.8 -63.27,215.95 -114.21,312.63 -101.85,193.71 -250.17,352.91 -422.45,468.18 -86.24,57.66 -177.65,103.62 -271.4,137.6 -23.83,7.58 -47.47,15.13 -70.95,22.61 -23.6,7.26 -49.88,12.27 -74.48,18.05 -24.99,6.2 -49.75,9.67 -74.39,12.65 -24.6,2.8 -49.17,7.2 -73.29,7.49 -193.8,11.98 -372.28,-26.37 -529.75,-97.22 -156.07,-73.26 -294.4,-182.85 -385.03,-325.33 -21.78,-36.13 -43.62,-71.11 -58.52,-109.74 -8.03,-18.92 -16.09,-37.61 -23.13,-56.44 -5.46,-19.4 -10.85,-38.64 -16.22,-57.71 -21.33,-76.12 -27.65,-156.22 -22.71,-228.2 9.19,-145.88 57.11,-270.37 120.99,-371.16 63.21,-101.58 146.14,-179.11 233.11,-234.94 87.11,-55.92 181.73,-87.2 265.71,-98.35 84.47,-11.88 160.11,-5.87 225.35,7.36 130.92,26.91 221.19,82.61 282.79,134.22 61.7,52.74 94.12,104.64 112.64,143.73 8.45,20.55 13.88,37.81 16.8,52.51 2.19,15.39 2.19,27.88 0.74,38.16 -2.99,20.55 -11.91,32.28 -22.9,39.66z"/>
   <polygon class="fil0" points="1037.6,15700.48 29996.52,15700.48 29996.52,15612.56 1037.6,15612.56 "/>
   <path class="fil0" d="M29861.94 14947.27c0,0 -11.56,9.77 -30.51,27.46 -18.3,17.55 -44.97,42.57 -76.76,72.82 -15.42,14.93 -32.44,31.18 -50.43,48.46 -17.02,17.47 -36.29,35.24 -55.24,54.57 -38.22,37.93 -78.37,79.43 -118.2,124.75 -40.14,44.97 -76.76,89.68 -109.51,132.46 -17.03,20.84 -32.44,42.1 -47.87,61.37 -14.77,19.85 -28.9,38.54 -42.07,55.73 -26.02,35.32 -47.86,64.59 -62.95,85.04 -15.42,20.79 -23.57,33.51 -23.57,33.51 0,0 14.58,-0.52 40.91,-3.76 6.75,-0.9 13.81,-1.9 21.84,-2.95 8.03,-1.32 16.38,-3.13 25.38,-5.05 18.3,-4.05 39.18,-8.57 61.34,-16.06 10.93,-3.57 22.49,-7.48 34.69,-11.79 11.89,-4.33 23.77,-9.73 36.62,-15.19 25.05,-10.69 50.74,-24.67 77.4,-40.21 52.35,-32.03 105.67,-74.06 152.88,-126.8 46.57,-53.06 81.9,-111.26 107.6,-166.98 12.2,-28.26 22.8,-55.28 30.51,-81.74 3.85,-13.14 7.71,-25.67 10.6,-38.13 2.89,-12.46 5.45,-24.44 7.7,-35.91 4.83,-22.71 6.75,-44.09 8.68,-62.56 0.64,-9.28 1.6,-17.86 1.93,-25.86 0,-7.99 0.32,-15.38 0.32,-22.03 0,-26.47 -1.29,-41.15 -1.29,-41.15z"/>
   <path class="fil0" d="M30204 15217.14c0,0 -185.96,27.16 -357.8,144.85 -171.5,117.64 -264,281.26 -264,281.26 0,0 185.96,-27.18 357.47,-144.86 171.83,-117.65 264.33,-281.25 264.33,-281.25z"/>
   <path class="fil0" d="M29875.11 15291.96c0,1.22 0,2.44 0,3.67 0,14.45 -12.85,28.29 -27.62,27.62 -15.1,-0.68 -27.63,-12.14 -27.63,-27.62 0,-1.23 0,-2.45 0,-3.67 0,-14.44 12.85,-28.29 27.63,-27.62 15.09,0.65 27.62,12.11 27.62,27.62l0 0z"/>
   <path class="fil0" d="M29864.19 15214.62c0,-35.55 55.24,-35.61 55.24,0 0,35.53 -55.24,35.59 -55.24,0l0 0z"/>
   <path class="fil0" d="M29889.89 15115.19c0,-35.56 55.24,-35.58 55.24,0 0,35.56 -55.24,35.62 -55.24,0l0 0z"/>
   <path class="fil0" d="M29882.5 15019.44c0,-35.52 55.24,-35.58 55.24,0 0,35.56 -55.24,35.62 -55.24,0l0 0z"/>
   <path class="fil0" d="M29532.09 15032.96c0,0 -103.42,82.58 -169.9,215 -66.81,132.43 -71.62,264.57 -71.62,264.57 0,0 103.41,-82.58 169.9,-215 66.8,-132.43 71.62,-264.57 71.62,-264.57z"/>
   <path class="fil0" d="M29847.49 16378.1c0,0 -11.24,-10.21 -29.23,-28.68 -17.99,-18.27 -43.36,-44.38 -73.87,-75.93 -15.1,-15.57 -31.16,-32.5 -48.5,-50.48 -16.38,-18.18 -35.01,-36.72 -52.67,-56.82 -36.93,-39.5 -75.15,-82.61 -113.06,-129.54 -38.54,-46.57 -72.9,-92.75 -104.38,-136.82 -16.06,-21.55 -30.51,-43.42 -44.96,-63.27 -14.14,-20.49 -27.31,-39.73 -39.83,-57.46 -24.73,-36.35 -44.97,-66.48 -59.42,-87.56 -14.46,-21.38 -22.16,-34.46 -22.16,-34.46 0,0 14.77,1.16 40.79,5.47 6.42,1.15 13.81,2.44 21.84,3.85 7.7,1.64 16.06,3.79 25.05,6.1 17.99,4.79 38.86,10.19 60.38,18.53 10.92,4.02 22.48,8.42 34.36,13.23 11.57,4.83 23.46,10.7 35.66,16.67 25.05,11.73 49.78,26.76 75.8,43.39 51.07,34.15 102.78,78.35 147.74,132.97 44.32,54.96 77.41,114.57 100.53,171.29 10.92,28.74 20.55,56.18 27.3,82.93 3.21,13.3 6.75,25.99 8.99,38.54 2.25,12.56 4.18,24.64 6.1,36.16 3.86,22.91 4.82,44.36 6.1,62.9 0.33,9.31 0.65,17.89 0.65,25.88 0,8.03 -0.32,15.39 -0.32,22.03 -1.28,26.47 -2.89,41.08 -2.89,41.08z"/>
   <path class="fil0" d="M30204 16095.89c0,0 -185.96,-27.18 -357.8,-144.83 -171.5,-117.68 -264,-281.28 -264,-281.28 0,0 185.96,27.2 357.47,144.85 171.83,117.68 264.33,281.26 264.33,281.26z"/>
   <path class="fil0" d="M30395.42 15656.51c-113.69,78.04 -191.42,56.2 -191.42,56.2 0,0 48.82,20.66 48.82,103.26 0,82.61 -107.59,120.48 -107.59,120.48 -60.71,-203.08 -252.13,-279.94 -252.13,-279.94 0,0 191.42,-76.86 252.13,-279.91 0,0 107.59,37.84 107.59,120.44 0,82.61 -48.82,103.26 -48.82,103.26 0,0 77.73,-21.84 191.42,56.21z"/>
   <path class="fil0" d="M29875.11 16021.08c0,-1.22 0,-2.44 0,-3.69 0,-14.46 -12.85,-28.27 -27.62,-27.62 -15.1,0.67 -27.63,12.13 -27.63,27.62 0,1.25 0,2.47 0,3.69 0,14.45 12.85,28.29 27.63,27.62 15.09,-0.68 27.62,-12.14 27.62,-27.62l0 0z"/>
   <path class="fil0" d="M29864.19 16098.42c0,35.52 55.24,35.59 55.24,0 0,-35.56 -55.24,-35.62 -55.24,0l0 0z"/>
   <path class="fil0" d="M29889.89 16197.83c0,35.55 55.24,35.61 55.24,0 0,-35.53 -55.24,-35.59 -55.24,0l0 0z"/>
   <path class="fil0" d="M29882.5 16293.57c0,35.55 55.24,35.61 55.24,0 0,-35.53 -55.24,-35.59 -55.24,0l0 0z"/>
   <path class="fil0" d="M29532.09 16280.05c0,0 -103.42,-82.54 -169.9,-214.97 -66.81,-132.43 -71.62,-264.56 -71.62,-264.56 0,0 103.41,82.55 169.9,214.97 66.8,132.43 71.62,264.56 71.62,264.56z"/>
   <path class="fil0" d="M1132.96 14947.27c0,0 11.65,9.77 30.45,27.46 18.5,17.55 44.93,42.57 76.86,72.82 15.51,14.93 32.37,31.18 50.29,48.46 17.31,17.47 36.58,35.24 55.24,54.57 38.48,37.93 78.5,79.43 118.32,124.75 40.25,44.97 76.64,89.68 109.69,132.46 16.95,20.84 32.28,42.1 47.56,61.37 15.01,19.85 29.11,38.54 42.08,55.73 26.2,35.32 47.92,64.59 63.11,85.04 15.33,20.79 23.57,33.51 23.57,33.51 0,0 -14.7,-0.52 -40.97,-3.76 -6.59,-0.9 -13.88,-1.9 -21.85,-2.95 -7.9,-1.32 -16.31,-3.13 -25.41,-5.05 -18.1,-4.05 -39.11,-8.57 -61.08,-16.06 -11.11,-3.57 -22.7,-7.48 -34.75,-11.79 -12.02,-4.33 -24,-9.73 -36.59,-15.19 -25.34,-10.69 -50.87,-24.67 -77.47,-40.21 -52.25,-32.03 -105.79,-74.06 -152.88,-126.8 -46.73,-53.06 -82.03,-111.26 -107.55,-166.98 -12.24,-28.26 -23.07,-55.28 -30.65,-81.74 -3.91,-13.14 -7.84,-25.67 -10.7,-38.13 -2.86,-12.46 -5.36,-24.44 -7.55,-35.91 -4.77,-22.71 -6.77,-44.09 -8.6,-62.56 -0.84,-9.28 -1.6,-17.86 -1.96,-25.86 -0.12,-7.99 -0.25,-15.38 -0.35,-22.03 -0.04,-26.47 1.19,-41.15 1.19,-41.15z"/>
   <path class="fil0" d="M791.06 15217.14c0,0 185.94,27.16 357.61,144.85 171.67,117.64 264.07,281.26 264.07,281.26 0,0 -185.9,-27.18 -357.58,-144.86 -171.67,-117.65 -264.1,-281.25 -264.1,-281.25z"/>
   <path class="fil0" d="M1119.85 15291.96c0,1.22 0,2.44 0,3.67 0,14.45 12.69,28.29 27.6,27.62 14.95,-0.68 27.61,-12.14 27.61,-27.62 0,-1.23 0,-2.45 0,-3.67 0,-14.44 -12.68,-28.29 -27.61,-27.62 -14.94,0.65 -27.6,12.11 -27.6,27.62l0 0z"/>
   <path class="fil0" d="M1130.87 15214.62c0,-35.55 -55.21,-35.61 -55.21,0 0,35.53 55.21,35.59 55.21,0l0 0z"/>
   <path class="fil0" d="M1105.11 15115.19c0,-35.56 -55.24,-35.58 -55.24,0 0,35.56 55.24,35.62 55.24,0l0 0z"/>
   <path class="fil0" d="M1112.47 15019.44c0,-35.52 -55.25,-35.58 -55.25,0 0,35.56 55.25,35.62 55.25,0l0 0z"/>
   <path class="fil0" d="M1462.87 15032.96c0,0 103.29,82.58 169.94,215 66.68,132.43 71.47,264.57 71.47,264.57 0,0 -103.3,-82.58 -169.95,-215 -66.68,-132.43 -71.46,-264.57 -71.46,-264.57z"/>
   <path class="fil0" d="M1147.57 16378.1c0,0 11.24,-10.21 29.26,-28.68 17.8,-18.27 43.17,-44.38 73.8,-75.93 14.91,-15.57 31.07,-32.5 48.29,-50.48 16.56,-18.18 35.06,-36.72 52.92,-56.82 36.91,-39.5 75.19,-82.61 113.09,-129.54 38.35,-46.57 72.87,-92.75 104.16,-136.82 16.06,-21.55 30.51,-43.42 45,-63.27 14.16,-20.49 27.46,-39.73 39.72,-57.46 24.74,-36.35 45.19,-66.48 59.52,-87.56 14.45,-21.38 22.19,-34.46 22.19,-34.46 0,0 -14.67,1.16 -40.79,5.47 -6.55,1.15 -13.78,2.44 -21.67,3.85 -7.84,1.64 -16.19,3.79 -25.22,6.1 -17.92,4.79 -38.7,10.19 -60.38,18.53 -10.92,4.02 -22.35,8.42 -34.21,13.23 -11.81,4.83 -23.57,10.7 -35.9,16.67 -24.9,11.73 -49.82,26.76 -75.77,43.39 -50.91,34.15 -102.65,78.35 -147.52,132.97 -44.48,54.96 -77.4,114.57 -100.59,171.29 -11.08,28.74 -20.79,56.18 -27.27,82.93 -3.34,13.3 -6.75,25.99 -9.09,38.54 -2.34,12.56 -4.34,24.64 -6.07,36.16 -3.82,22.91 -4.95,44.36 -6.04,62.9 -0.41,9.31 -0.87,17.89 -0.87,25.88 0.19,8.03 0.39,15.39 0.55,22.03 1.06,26.47 2.89,41.08 2.89,41.08z"/>
   <path class="fil0" d="M791.06 16095.89c0,0 185.94,-27.18 357.61,-144.83 171.67,-117.68 264.07,-281.28 264.07,-281.28 0,0 -185.9,27.2 -357.58,144.85 -171.67,117.68 -264.1,281.26 -264.1,281.26z"/>
   <path class="fil0" d="M599.64 15656.51c113.57,78.04 191.42,56.2 191.42,56.2 0,0 -48.82,20.66 -48.82,103.26 0,82.61 107.5,120.48 107.5,120.48 60.64,-203.08 252.16,-279.94 252.16,-279.94 0,0 -191.52,-76.86 -252.16,-279.91 0,0 -107.5,37.84 -107.5,120.44 0,82.61 48.82,103.26 48.82,103.26 0,0 -77.85,-21.84 -191.42,56.21z"/>
   <path class="fil0" d="M1119.85 16021.08c0,-1.22 0,-2.44 0,-3.69 0,-14.46 12.69,-28.27 27.6,-27.62 14.95,0.67 27.61,12.13 27.61,27.62 0,1.25 0,2.47 0,3.69 0,14.45 -12.68,28.29 -27.61,27.62 -14.94,-0.68 -27.6,-12.14 -27.6,-27.62l0 0z"/>
   <path class="fil0" d="M1130.87 16098.42c0,35.52 -55.21,35.59 -55.21,0 0,-35.56 55.21,-35.62 55.21,0l0 0z"/>
   <path class="fil0" d="M1105.11 16197.83c0,35.55 -55.24,35.61 -55.24,0 0,-35.53 55.24,-35.59 55.24,0l0 0z"/>
   <path class="fil0" d="M1112.47 16293.57c0,35.55 -55.25,35.61 -55.25,0 0,-35.53 55.25,-35.59 55.25,0l0 0z"/>
   <path class="fil0" d="M1462.87 16280.05c0,0 103.29,-82.54 169.94,-214.97 66.68,-132.43 71.47,-264.56 71.47,-264.56 0,0 -103.3,82.55 -169.95,214.97 -66.68,132.43 -71.46,264.56 -71.46,264.56z"/>
  </g>
 </g>
</svg>
